<?xml version="1.0" encoding="UTF-8" standalone="no"?>
<svg
   xmlns:dc="http://purl.org/dc/elements/1.1/"
   xmlns:cc="http://creativecommons.org/ns#"
   xmlns:rdf="http://www.w3.org/1999/02/22-rdf-syntax-ns#"
   xmlns:svg="http://www.w3.org/2000/svg"
   xmlns="http://www.w3.org/2000/svg"
   viewBox="0 0 969.91998 710.90668"
   height="710.90668"
   width="969.91998"
   xml:space="preserve"
   id="svg2"
   version="1.1"><metadata
     id="metadata8"><rdf:RDF><cc:Work
         rdf:about=""><dc:format>image/svg+xml</dc:format><dc:type
           rdf:resource="http://purl.org/dc/dcmitype/StillImage" /></cc:Work></rdf:RDF></metadata><defs
     id="defs6"><clipPath
       id="clipPath160"
       clipPathUnits="userSpaceOnUse"><path
         id="path158"
         d="m 4366.52,5128.68 c 0,0 134.87,-205.88 35.42,-402.78 0,0 174.07,160.71 -35.42,402.78 z" /></clipPath><linearGradient
       id="linearGradient168"
       spreadMethod="pad"
       gradientTransform="matrix(103.262,0,0,-103.262,4366.52,4927.29)"
       gradientUnits="userSpaceOnUse"
       y2="0"
       x2="1"
       y1="0"
       x1="0"><stop
         id="stop162"
         offset="0"
         style="stop-opacity:1;stop-color:#f3f3f3" /><stop
         id="stop164"
         offset="0.444816"
         style="stop-opacity:1;stop-color:#fbfcfc" /><stop
         id="stop166"
         offset="1"
         style="stop-opacity:1;stop-color:#fbfcfc" /></linearGradient></defs><g
     transform="matrix(1.3333333,0,0,-1.3333333,0,710.90667)"
     id="g10"><g
       transform="scale(0.1)"
       id="g12"><path
         id="path14"
         style="fill:#357cb8;fill-opacity:1;fill-rule:nonzero;stroke:none"
         d="m 627.266,1846.02 c 19.882,0 42.121,-1.66 66.711,-4.97 24.57,-3.32 48.882,-8.85 72.91,-16.58 24.031,-7.74 46.258,-17.82 66.707,-30.24 20.429,-12.43 36.172,-28.05 47.226,-46.82 13.809,-9.95 26.231,-24.59 37.293,-43.92 9.946,-21 14.914,-40.88 14.914,-59.66 0,-21 -3.73,-40.33 -11.191,-58 -7.449,-17.68 -16.981,-33.7 -28.582,-48.06 -11.606,-14.37 -24.172,-27.07 -37.707,-38.12 -13.535,-11.05 -26.652,-20.3 -39.356,-27.75 -12.714,-7.46 -23.757,-13.14 -33.144,-17 -9.402,-3.86 -15.469,-5.8 -18.234,-5.8 -2.762,0 -7.325,1.38 -13.668,4.15 -6.36,2.76 -12.571,6.07 -18.645,9.95 -7.187,3.85 -14.91,8.55 -23.203,14.08 0,0.54 5.246,3.85 15.742,9.95 10.488,6.06 22.234,15.46 35.227,28.16 12.964,12.71 24.707,29.43 35.214,50.14 10.489,20.71 15.743,46.26 15.743,76.65 -4.973,9.94 -11.887,19.47 -20.715,28.58 -8.848,9.12 -20.176,17.12 -33.977,24.04 -13.816,6.89 -30.523,12.56 -50.136,16.98 -19.61,4.41 -42.957,6.63 -70.016,6.63 -9.399,0 -23.75,-1.39 -43.086,-4.14 -19.348,-2.77 -41.711,-7.74 -67.121,-14.92 -25.41,-7.19 -52.902,-16.98 -82.442,-29.42 -29.558,-12.43 -59.121,-28.73 -88.664,-48.88 -29.558,-20.18 -58.003,-44.48 -85.347,-72.92 -27.348,-28.46 -51.516,-61.88 -72.5,-100.27 -21.008,-38.39 -37.707,-82.44 -50.141,-132.16 -12.43,-49.72 -18.64,-106.06 -18.64,-169.04 0,-34.26 2.753,-65.33 8.292,-93.22 5.504,-27.9 12.84,-53.03 21.954,-75.401 9.109,-22.367 19.746,-42.258 31.902,-59.66 12.141,-17.399 24.852,-33.02 38.113,-46.816 8.293,-4.434 17.68,-10.083 28.176,-16.993 10.488,-6.91 24.719,-13.539 42.676,-19.879 17.937,-6.359 41.015,-11.89 69.187,-16.57 28.176,-4.699 64.075,-7.039 107.715,-7.039 37.563,0 73.344,4.41 107.309,13.25 33.972,8.828 65.73,20.148 95.293,33.969 29.55,13.801 56.758,29.129 81.621,45.988 24.859,16.84 46.812,33.422 65.879,49.723 19.05,16.289 34.929,31.199 47.644,44.738 12.696,13.54 21.543,23.89 26.516,31.08 10.484,14.35 17.937,23.61 22.371,27.76 4.414,4.14 8.281,6.21 11.602,6.21 2.753,0 5.378,-0.28 7.871,-0.83 2.48,-0.56 5.097,-0.83 7.871,-0.83 4.968,0 8,2.49 9.113,7.46 1.102,4.97 2.488,7.46 4.141,7.46 1.101,0 1.929,-2.21 2.488,-6.63 0.547,-4.43 0.832,-9.68 0.832,-15.74 0,-3.32 -0.285,-6.5 -0.832,-9.53 -0.559,-3.05 -0.828,-5.95 -0.828,-8.7 -0.559,-3.32 -2.903,-14.5 -7.043,-33.57 C 954.16,983.84 946.418,961.18 935.098,934.949 923.77,908.699 907.883,880.68 887.449,850.84 867.012,821.02 840.637,793.391 808.32,767.98 776.008,742.57 736.641,721.582 690.242,705.012 643.84,688.441 589.148,680.148 526.172,680.148 c -38.113,0 -73.328,3.461 -105.645,10.364 -32.312,6.89 -61.316,15.457 -87.004,25.679 -25.691,10.219 -48.472,21.551 -68.367,33.981 -19.883,12.43 -36.457,24.16 -49.718,35.207 -28.172,16.019 -55.243,36.473 -81.2,61.32 C 108.27,871.563 85.3516,901.391 65.4609,936.191 45.5781,971 29.6875,1011.46 17.8242,1057.59 5.92578,1103.7 0,1156.05 0,1214.61 c 0,58.55 7.73438,114.89 23.2031,169.03 15.4571,54.14 37.1485,104.68 65.0508,151.65 27.8911,46.94 61.1721,89.49 99.8441,127.6 38.66,38.12 81.211,70.71 127.605,97.78 46.406,27.06 95.977,48.06 148.738,62.97 52.747,14.92 107.024,22.38 162.825,22.38" /><path
         id="path16"
         style="fill:#357cb8;fill-opacity:1;fill-rule:nonzero;stroke:none"
         d="m 1231.33,1792.98 c 0,-7.73 -0.56,-22.93 -1.66,-45.57 -1.12,-22.66 -2.48,-49.86 -4.14,-81.62 -1.65,-31.77 -3.46,-66.57 -5.38,-104.4 -1.95,-37.85 -4.02,-75.69 -6.22,-113.53 -2.21,-37.84 -4.14,-74.44 -5.8,-109.79 -1.66,-35.35 -2.77,-66.29 -3.32,-92.8 -1.11,-16.03 -1.79,-33.71 -2.07,-53.03 -0.28,-19.35 -0.42,-40.06 -0.42,-62.15 0,-29.29 0.14,-59.8 0.42,-91.56 0.28,-31.77 0.69,-63.12 1.24,-94.061 0.55,-30.93 1.24,-60.617 2.07,-89.067 0.83,-28.453 1.52,-54.004 2.08,-76.652 0.54,-22.648 0.95,-41.57 1.25,-56.758 0.26,-15.191 0.41,-24.722 0.41,-28.582 0,-7.73 -1.25,-13.668 -3.74,-17.808 -2.48,-4.153 -5.52,-6.911 -9.11,-8.293 -3.6,-1.379 -7.33,-1.657 -11.19,-0.829 -3.87,0.829 -7.18,2.071 -9.94,3.731 -3.31,1.66 -5.94,3.598 -7.87,5.801 -1.94,2.207 -3.46,3.867 -4.56,4.968 -1.11,1.11 -2.07,1.391 -2.9,0.829 -0.82,-0.547 -1.52,-2.758 -2.07,-6.629 -1.65,-14.36 -4.85,-25.129 -9.52,-32.321 -4.71,-7.168 -9.68,-12.007 -14.93,-14.5 -5.25,-2.488 -10.08,-3.168 -14.5,-2.07 -4.42,1.113 -7.17,3.043 -8.28,5.801 -1.11,2.781 -2.9,4.43 -5.39,4.969 -2.48,0.562 -5.11,0.972 -7.87,1.242 -2.76,0.289 -5.38,1.121 -7.87,2.488 -2.48,1.391 -4.01,4.293 -4.56,8.703 -4.43,18.778 -7.18,42.68 -8.28,71.668 -1.12,29.012 -1.66,61.742 -1.66,98.199 0,31.481 0.27,65.461 0.83,101.922 0.54,36.461 0.83,73.739 0.83,111.859 0,22.09 0,44.05 0,65.88 0,21.81 -0.56,44.04 -1.66,66.7 v 52.2 c 0,44.75 1.1,89.62 3.32,134.65 2.19,45.02 4.97,88.25 8.28,129.68 3.32,41.43 6.9,80.38 10.77,116.83 3.86,36.47 7.18,68.78 9.94,96.96 2.77,28.17 4.98,51.08 6.63,68.77 1.66,17.67 2.21,28.72 1.66,33.14 -0.55,3.87 -0.14,6.63 1.24,8.29 1.38,1.66 3.32,2.62 5.8,2.9 2.49,0.28 5.11,0.55 7.87,0.83 2.77,0.28 5.25,0.96 7.47,2.07 3.85,2.2 7.04,2.9 9.53,2.07 2.48,-0.83 4.55,-2.07 6.21,-3.73 1.66,-1.65 3.17,-3.45 4.56,-5.38 1.37,-1.94 3.44,-2.9 6.21,-2.9 3.32,0.54 5.93,1.52 7.87,2.9 1.93,1.37 3.58,2.76 4.97,4.14 1.38,1.37 2.76,2.62 4.15,3.73 1.37,1.1 3.17,1.37 5.38,0.83 4.42,-1.11 8.7,-1.8 12.84,-2.08 4.15,-0.28 6.22,0.42 6.22,2.08 1.1,4.42 2.76,6.49 4.98,6.21 2.19,-0.28 4.97,-1.79 8.28,-4.56 3.32,-2.76 6.07,-5.66 8.29,-8.7 2.19,-3.03 3.31,-7.6 3.31,-13.67" /><path
         id="path18"
         style="fill:#357cb8;fill-opacity:1;fill-rule:nonzero;stroke:none"
         d="m 1645.63,1297.47 c -9.94,0 -22.78,-2.07 -38.52,-6.22 -15.75,-4.14 -32.32,-11.46 -49.72,-21.95 -17.4,-10.5 -34.68,-24.73 -51.79,-42.68 -17.13,-17.96 -32.05,-40.74 -44.75,-68.36 7.73,3.86 14.5,7.17 20.3,9.95 5.8,2.75 9.81,4.14 12.02,4.14 1.1,0 2.76,-1.12 4.97,-3.31 12.7,-21.55 28.59,-36.88 47.65,-45.99 19.05,-9.12 40.46,-13.67 64.22,-13.67 18.77,0 34.93,3.17 48.47,9.53 13.53,6.34 24.71,14.49 33.56,24.44 8.83,9.94 15.19,20.84 19.05,32.73 3.86,11.87 5.8,23.61 5.8,35.21 0,24.86 -6.35,45.44 -19.05,61.74 -12.71,16.29 -30.12,24.44 -52.21,24.44 z m 249.42,-308.251 c 0,-6.078 0.27,-13.25 0.83,-21.539 0.55,-8.278 0.83,-17.688 0.83,-28.18 0,-13.25 -1.94,-29.691 -5.8,-49.289 -3.88,-19.621 -10.09,-40.191 -18.64,-61.742 -8.58,-21.539 -20.03,-43.09 -34.4,-64.629 -14.36,-21.539 -32.04,-40.891 -53.03,-58 -20.99,-17.129 -45.71,-31.07 -74.16,-41.84 -28.45,-10.781 -60.9,-16.168 -97.36,-16.168 -32.6,0 -65.88,6.219 -99.85,18.648 -33.97,12.43 -64.92,31.75 -92.81,58 -27.9,26.239 -50.83,59.661 -68.77,100.27 -17.95,40.59 -26.93,89.07 -26.93,145.422 0,35.338 4.56,70.138 13.67,104.398 9.11,34.25 21.26,66.56 36.46,96.96 15.19,30.37 33.14,58.4 53.87,84.1 20.71,25.68 42.52,47.77 65.45,66.29 22.92,18.49 46.67,32.99 71.26,43.5 24.57,10.48 48.48,15.74 71.68,15.74 40.32,0 73.61,-6.35 99.85,-19.06 26.23,-12.71 47.09,-28.46 62.56,-47.22 15.45,-18.79 26.37,-38.82 32.73,-60.08 6.35,-21.27 9.53,-40.47 9.53,-57.59 0,-16.57 -4.01,-35.5 -12.02,-56.76 -8.01,-21.28 -21.12,-41.43 -39.36,-60.49 -18.23,-19.06 -41.99,-35.08 -71.26,-48.06 -29.28,-12.99 -65.19,-19.48 -107.72,-19.48 -22.66,0 -42.96,3.18 -60.9,9.54 -17.96,6.34 -33.85,14.35 -47.64,24.03 -13.82,9.66 -25.56,20.15 -35.22,31.48 -9.68,11.32 -17.82,21.97 -24.44,31.91 -9.95,-34.26 -14.92,-74.31 -14.92,-120.161 0,-31.477 4.56,-59.789 13.67,-84.93 9.12,-25.137 21.68,-46.539 37.7,-64.219 16.02,-17.691 35.08,-31.211 57.18,-40.601 22.09,-9.399 46.4,-14.09 72.92,-14.09 33.14,0 62.14,5.672 87,17 24.86,11.301 46.53,25.531 65.05,42.66 18.5,17.121 34.51,35.762 48.06,55.941 13.52,20.149 25.27,38.661 35.21,55.52 9.94,16.84 18.64,30.789 26.11,41.84 7.46,11.05 14.77,16.29 21.95,15.74 3.32,0 4.98,-2.77 4.98,-8.29 0,-2.76 -0.29,-5.52 -0.83,-8.278 -0.56,-2.77 -1.39,-5.532 -2.49,-8.293" /><path
         id="path20"
         style="fill:#357cb8;fill-opacity:1;fill-rule:nonzero;stroke:none"
         d="m 2354.11,1024.86 c -16.57,-6.09 -34.8,-14.09 -54.7,-24.04 -19.88,-9.941 -40.05,-21.679 -60.48,-35.211 -20.44,-13.55 -40.88,-29.14 -61.32,-46.82 -20.44,-17.68 -39.5,-37.277 -57.17,-58.828 -21.01,-24.859 -36.19,-46.961 -45.58,-66.289 -9.4,-19.34 -15.19,-35.77 -17.4,-49.301 -2.22,-13.551 -1.66,-24.172 1.66,-31.91 3.31,-7.731 7.17,-12.422 11.6,-14.082 17.11,-6.629 34.93,-7.32 53.45,-2.07 18.5,5.242 37,14.632 55.52,28.171 18.49,13.532 36.45,29.829 53.85,48.891 17.41,19.051 33.83,38.66 49.3,58.828 15.46,20.172 29.28,40.051 41.44,59.66 12.15,19.61 22.09,36.59 29.83,50.961 z m 149.98,147.49 c 0.54,-19.34 -1.11,-42.96 -4.98,-70.84 -3.87,-27.9 -8.28,-57.74 -13.25,-89.5 -4.97,-31.768 -9.68,-64.209 -14.09,-97.358 -4.43,-33.14 -6.62,-64.363 -6.62,-93.632 0,-19.348 1.36,-37.711 4.14,-55.11 2.75,-17.398 7.45,-32.461 14.08,-45.16 3.86,-7.18 5.93,-13.539 6.22,-19.059 0.27,-5.531 -0.15,-10.351 -1.25,-14.5 -1.11,-4.14 -2.21,-7.722 -3.31,-10.769 -1.11,-3.031 -1.11,-5.93 0,-8.703 1.1,-2.758 0.83,-5.93 -0.83,-9.52 -1.66,-3.597 -4.14,-6.91 -7.46,-9.957 -3.31,-3.023 -7.04,-5.23 -11.18,-6.621 -4.14,-1.371 -7.87,-0.949 -11.18,1.238 -6.1,3.871 -10.92,6.09 -14.51,6.633 -3.6,0.559 -6.63,0.41 -9.12,-0.422 -2.48,-0.828 -4.7,-1.781 -6.63,-2.898 -1.93,-1.09 -4.28,-1.09 -7.04,0 -9.39,4.969 -19.61,10.777 -30.65,17.41 -11.06,6.629 -18.24,13.809 -21.55,21.539 -2.21,3.32 -4.28,8.828 -6.22,16.57 -1.94,7.739 -3.59,16.848 -4.97,27.348 -1.39,10.481 -2.63,21.813 -3.73,33.973 -1.11,12.148 -1.94,24.027 -2.48,35.629 -18.23,-34.25 -37.7,-62.7 -58.42,-85.352 -20.71,-22.648 -41.43,-40.73 -62.15,-54.258 -20.71,-13.539 -41.16,-23.07 -61.31,-28.601 -20.17,-5.52 -38.53,-8.278 -55.1,-8.278 -17.13,0 -32.19,2.207 -45.17,6.618 -12.99,4.441 -23.06,9.679 -30.24,15.75 -27.07,27.07 -46.27,49.019 -57.59,65.871 -11.33,16.851 -16.45,30.519 -15.33,41.019 2.76,35.352 11.32,67.949 25.69,97.781 14.36,29.829 32.32,57.309 53.86,82.438 21.54,25.141 45.7,47.781 72.5,67.953 26.79,20.158 54.14,38.118 82.04,53.858 27.88,15.74 55.37,29 82.44,39.78 27.06,10.77 51.65,19.47 73.75,26.1 -1.11,29.83 -2.35,55.93 -3.73,78.3 -1.39,22.37 -3.46,38.81 -6.21,49.31 -8.29,34.24 -21.01,59.78 -38.12,76.65 -17.12,16.83 -37.85,25.27 -62.14,25.27 -15.48,0 -31.08,-5.8 -46.82,-17.4 -15.74,-11.6 -29.97,-27.35 -42.68,-47.24 -12.71,-19.88 -23.07,-42.81 -31.07,-68.77 -8.02,-25.97 -12.3,-53.32 -12.84,-82.04 0,-7.18 0.27,-14.08 0.83,-20.71 0.54,-6.63 1.37,-13.55 2.48,-20.72 0.55,-3.87 -0.69,-6.63 -3.73,-8.29 -3.04,-1.65 -6.77,-2.9 -11.18,-3.72 -4.43,-0.83 -9.11,-1.53 -14.09,-2.08 -4.98,-0.55 -9.12,-1.37 -12.43,-2.48 -2.77,-1.11 -4.97,-1.79 -6.63,-2.07 -1.66,-0.28 -3.31,0 -4.97,0.83 -1.66,0.82 -3.73,2.35 -6.22,4.55 -2.48,2.21 -5.94,4.97 -10.35,8.29 -4.43,3.31 -8.99,6.08 -13.67,8.29 -4.7,2.2 -8.85,4.15 -12.43,5.8 -3.61,1.66 -6.64,3.17 -9.12,4.56 -2.49,1.36 -3.73,3.17 -3.73,5.38 0,34.25 7.59,69.61 22.79,106.06 15.18,36.47 35.63,69.74 61.32,99.86 25.69,30.09 55.51,54.81 89.49,74.16 33.97,19.32 70.02,29 108.13,29 30.93,0 57.72,-4.71 80.38,-14.09 22.64,-9.4 41.98,-21.55 58,-36.46 16.02,-14.92 29.13,-31.49 39.36,-49.71 10.21,-18.24 18.23,-36.61 24.03,-55.11 5.8,-18.52 9.94,-35.92 12.43,-52.2 2.48,-16.31 4.01,-29.71 4.56,-40.19" /><path
         id="path22"
         style="fill:#357cb8;fill-opacity:1;fill-rule:nonzero;stroke:none"
         d="m 3145.44,722.41 c 0,-6.629 -2.36,-13.961 -7.04,-21.961 -4.71,-8.019 -11.48,-12.008 -20.3,-12.008 -4.97,0 -8.85,1.368 -11.61,4.141 -2.77,2.75 -5.52,4.137 -8.29,4.137 -3.86,0 -7.59,-1.387 -11.18,-4.137 -3.6,-2.773 -9.53,-4.141 -17.81,-4.141 -11.07,0 -20.59,3.989 -28.59,12.008 -8.01,8 -14.51,18.231 -19.48,30.66 -4.97,12.43 -8.7,25.961 -11.18,40.602 -2.49,14.629 -3.73,28.301 -3.73,41.019 0,24.86 0.96,53.161 2.9,84.93 1.92,31.77 4.14,64.352 6.63,97.781 2.48,33.419 4.69,66.699 6.62,99.849 1.94,33.14 2.9,63.8 2.9,91.98 0,37.56 -2.48,66.82 -7.45,87.83 -4.97,20.99 -13.82,31.48 -26.51,31.48 -12.16,-1.66 -24.59,-12.15 -37.3,-31.48 -12.71,-19.35 -25.68,-44.06 -38.94,-74.16 -13.25,-30.12 -26.24,-64.09 -38.95,-101.92 -12.71,-37.85 -25,-76.52 -36.86,-116.008 -11.9,-39.5 -23.08,-77.891 -33.57,-115.18 -10.49,-37.281 -19.88,-70.57 -28.17,-99.852 -8.28,-29.289 -15.47,-52.898 -21.54,-70.839 -6.09,-17.95 -10.23,-26.93 -12.44,-26.93 -4.42,0 -7.74,0.961 -9.94,2.898 -2.21,1.942 -4.28,4.012 -6.21,6.211 -1.94,2.219 -4.28,4.289 -7.05,6.219 -2.76,1.922 -6.9,2.902 -12.42,2.902 -4.97,0 -8.29,-0.562 -9.94,-1.66 -1.66,-1.101 -3.61,-2.492 -5.8,-4.14 -2.22,-1.661 -4.98,-3.032 -8.29,-4.149 -3.31,-1.101 -9.11,-1.652 -17.41,-1.652 -9.94,0 -19.75,2.48 -29.41,7.449 -9.67,4.981 -14.5,12.703 -14.5,23.203 0,6.629 1.1,20.309 3.32,41.02 2.2,20.718 4.82,46.117 7.87,76.238 3.03,30.102 6.34,63.801 9.94,101.082 3.58,37.297 6.9,75.818 9.94,115.598 3.03,39.77 5.66,79.55 7.87,119.31 2.2,39.78 3.31,77.61 3.31,113.53 0,17.68 -0.28,34.1 -0.82,49.31 -0.55,15.18 -0.83,29.68 -0.83,43.49 0,3.32 1.65,4.97 4.97,4.97 6.64,0 11.73,-1.24 15.34,-3.73 3.58,-2.48 6.21,-5.1 7.87,-7.87 1.65,-2.76 2.61,-5.38 2.9,-7.87 0.27,-2.48 0.68,-3.72 1.24,-3.72 1.66,0 3.58,0.96 5.8,2.89 2.2,1.93 4.56,4 7.04,6.22 2.49,2.2 4.83,4.27 7.04,6.21 2.21,1.94 4.15,2.9 5.8,2.9 h 8.29 c 8.28,0 14.08,1.24 17.41,3.73 3.31,2.49 5.65,5.25 7.04,8.29 1.36,3.03 2.34,5.79 2.9,8.29 0.54,2.49 2.19,3.73 4.97,3.73 1.66,0 4,-1.24 7.04,-3.73 3.03,-2.5 6.07,-6.64 9.12,-12.44 3.03,-5.8 5.65,-13.39 7.87,-22.78 2.2,-9.4 3.31,-20.71 3.31,-33.97 0,-17.69 -0.7,-40.06 -2.07,-67.12 -1.39,-27.07 -3.05,-55.93 -4.97,-86.6 -1.94,-30.65 -3.73,-61.6 -5.39,-92.8 -1.65,-31.21 -2.76,-59.53 -3.31,-84.928 6.07,23.738 13.39,50.128 21.95,79.128 8.57,29.01 18.51,58.42 29.84,88.25 11.31,29.83 23.61,58.96 36.87,87.42 13.26,28.44 27.62,53.72 43.09,75.82 15.46,22.09 31.75,39.9 48.88,53.44 17.12,13.53 35.08,20.31 53.87,20.31 29.82,0 54.27,-5.53 73.33,-16.58 19.05,-11.05 34.1,-26.25 45.16,-45.57 11.04,-19.35 18.64,-41.99 22.79,-67.95 4.14,-25.97 6.21,-53.86 6.21,-83.69 0,-25.41 -1.11,-52.07 -3.31,-79.96 -2.22,-27.9 -4.56,-55.81 -7.05,-83.69 -2.48,-27.908 -4.7,-55.389 -6.62,-82.451 -1.94,-27.067 -2.9,-52.489 -2.9,-76.227 0,-29.281 1.65,-55.66 4.97,-79.14 3.31,-23.481 4.97,-41.301 4.97,-53.442" /><path
         id="path24"
         style="fill:#357cb8;fill-opacity:1;fill-rule:nonzero;stroke:none"
         d="m 4467.91,803.621 c 2.76,-3.871 4.41,-6.641 4.97,-8.301 0.55,-1.648 0.42,-2.898 -0.41,-3.718 -0.83,-0.832 -2.07,-1.532 -3.73,-2.082 -1.66,-0.551 -3.05,-1.368 -4.14,-2.481 -2.77,-1.66 -3.46,-3.309 -2.07,-4.969 1.37,-1.66 0.41,-4.691 -2.9,-9.121 -2.22,-1.648 -2.49,-3.457 -0.83,-5.379 1.66,-1.941 1.92,-3.461 0.83,-4.558 -8.29,-12.711 -14.65,-20.711 -19.06,-24.02 -4.43,0 -8.28,-0.562 -11.61,-1.66 -1.65,-0.562 -2.76,-1.121 -3.31,-1.66 -1.66,-1.66 -3.32,-3.731 -4.97,-6.211 -1.66,-2.492 -3.04,-4.699 -4.15,-6.641 -1.11,-1.941 -2.35,-3.308 -3.72,-4.14 -1.38,-0.828 -2.9,-0.141 -4.56,2.07 -1.66,2.762 -3.73,4.141 -6.21,4.141 -2.49,0 -4.29,-0.828 -5.39,-2.481 -1.11,-1.109 -2.48,-2.359 -4.14,-3.73 -1.66,-1.379 -2.63,-2.77 -2.9,-4.149 -0.28,-1.371 0.41,-2.761 2.07,-4.14 1.66,-1.379 5.52,-2.899 11.6,-4.551 13.8,-3.871 16.43,-7.61 7.87,-11.188 -8.57,-3.593 -24.72,-4.562 -48.47,-2.902 -22.66,1.66 -44.2,3.172 -64.63,4.559 -20.45,1.371 -40.75,2.48 -60.91,3.312 -20.17,0.828 -40.74,1.508 -61.73,2.07 -21,0.551 -43.37,0.551 -67.12,0 -31.48,-0.562 -64.77,-1.941 -99.84,-4.14 -35.09,-2.219 -69.9,-4.699 -104.42,-7.461 -34.52,-2.758 -67.66,-5.649 -99.43,-8.699 -31.77,-3.032 -60.35,-5.93 -85.76,-8.692 -25.41,-2.769 -46.82,-5.39 -64.22,-7.879 -17.4,-2.48 -28.58,-4.269 -33.56,-5.379 -4.97,-1.66 -8.42,-2.351 -10.36,-2.07 -1.94,0.277 -3.31,1.789 -4.14,4.551 -0.83,2.769 -1.53,6.91 -2.07,12.43 -0.55,5.527 -1.94,12.98 -4.14,22.367 -1.66,5.523 -4.01,11.191 -7.05,16.992 -3.04,5.801 -5.11,10.352 -6.21,13.668 -1.66,8.832 -2.22,15.043 -1.66,18.652 0.55,3.578 3.86,5.93 9.94,7.039 l 101.92,27.34 c -6.08,38.121 -10.35,82.731 -12.84,133.82 -2.48,51.09 -3.73,106.49 -3.73,166.14 0,51.38 1.11,104 3.32,157.85 2.2,53.86 5.51,108.14 9.94,162.83 11.05,138.09 20.31,244.03 27.76,317.77 7.46,73.75 14.5,116.7 21.13,128.85 1.66,2.76 3.03,5.39 4.14,7.88 1.11,2.48 2.77,3.72 4.97,3.72 3.32,1.66 5.8,1.38 7.46,-0.82 1.66,-2.22 4.69,-2.49 9.11,-0.83 1.11,0 2.08,0.68 2.91,2.07 0.83,1.37 2.08,2.9 3.73,4.55 l 1.66,0.83 c 1.1,1.1 3.31,2.49 6.63,4.15 8.28,-2.77 14.35,-5.26 18.22,-7.46 2.21,-1.11 3.59,-1.94 4.15,-2.49 3.31,-1.65 6.62,-4.55 9.94,-8.7 3.31,-4.14 6.35,-4.55 9.11,-1.24 l 1.66,1.66 c 1.11,1.1 2.76,1.66 4.97,1.66 1.66,-1.11 3.31,-2.22 4.97,-3.32 1.66,-1.11 3.03,-2.22 4.14,-3.31 1.66,-1.66 3.04,-2.78 4.15,-3.32 2.76,-1.65 5.25,-3.87 7.46,-6.62 2.2,-2.78 4.41,-8.02 6.63,-15.76 2.19,-9.94 2.61,-30.38 1.24,-61.31 -1.38,-30.94 -3.6,-69.06 -6.62,-114.35 -3.05,-45.3 -6.22,-96.12 -9.54,-152.46 -3.32,-56.35 -5.25,-114.91 -5.8,-175.67 -0.55,-28.18 -1.38,-58.42 -2.49,-90.74 -1.11,-32.31 -2.2,-65.46 -3.31,-99.43 -1.11,-33.98 -2.07,-67.53 -2.9,-100.67 -0.83,-33.151 -1.24,-64.639 -1.24,-94.471 0,-23.758 0.13,-45.977 0.41,-66.707 0.28,-20.711 1.79,-38.52 4.56,-53.43 60.21,12.688 127.74,24.02 202.6,33.957 74.84,9.953 154.81,14.922 239.88,14.922 30.93,0 56.76,-1.531 77.47,-4.559 20.73,-3.031 37.98,-7.32 51.8,-12.843 3.31,-1.11 8,-3.18 14.08,-6.207 6.08,-3.051 12.44,-6.5 19.07,-10.36 6.62,-3.883 12.69,-7.75 18.22,-11.601 5.52,-3.871 9.38,-7.461 11.6,-10.77" /><path
         id="path26"
         style="fill:#357cb8;fill-opacity:1;fill-rule:nonzero;stroke:none"
         d="m 4807.65,1297.47 c -9.94,0 -22.79,-2.07 -38.54,-6.22 -15.74,-4.14 -32.31,-11.46 -49.72,-21.95 -17.4,-10.5 -34.66,-24.73 -51.78,-42.68 -17.13,-17.96 -32.04,-40.74 -44.75,-68.36 7.74,3.86 14.5,7.17 20.3,9.95 5.8,2.75 9.81,4.14 12.02,4.14 1.1,0 2.76,-1.12 4.98,-3.31 12.69,-21.55 28.58,-36.88 47.63,-45.99 19.07,-9.12 40.46,-13.67 64.22,-13.67 18.78,0 34.93,3.17 48.48,9.53 13.53,6.34 24.72,14.49 33.56,24.44 8.83,9.94 15.19,20.84 19.06,32.73 3.85,11.87 5.8,23.61 5.8,35.21 0,24.86 -6.36,45.44 -19.07,61.74 -12.7,16.29 -30.1,24.44 -52.19,24.44 z m 249.41,-308.251 c 0,-6.078 0.27,-13.25 0.83,-21.539 0.54,-8.278 0.83,-17.688 0.83,-28.18 0,-13.25 -1.94,-29.691 -5.8,-49.289 -3.88,-19.621 -10.09,-40.191 -18.65,-61.742 -8.57,-21.539 -20.03,-43.09 -34.39,-64.629 -14.36,-21.539 -32.04,-40.891 -53.02,-58 -21.01,-17.129 -45.73,-31.07 -74.16,-41.84 -28.46,-10.781 -60.91,-16.168 -97.37,-16.168 -32.61,0 -65.88,6.219 -99.85,18.648 -33.98,12.43 -64.91,31.75 -92.8,58 -27.9,26.239 -50.83,59.661 -68.78,100.27 -17.95,40.59 -26.93,89.07 -26.93,145.422 0,35.338 4.55,70.138 13.67,104.398 9.12,34.25 21.26,66.56 36.46,96.96 15.19,30.37 33.14,58.4 53.86,84.1 20.72,25.68 42.54,47.77 65.47,66.29 22.91,18.49 46.67,32.99 71.26,43.5 24.57,10.48 48.47,15.74 71.67,15.74 40.32,0 73.6,-6.35 99.85,-19.06 26.23,-12.71 47.09,-28.46 62.56,-47.22 15.46,-18.79 26.37,-38.82 32.73,-60.08 6.34,-21.27 9.52,-40.47 9.52,-57.59 0,-16.57 -4.01,-35.5 -12.01,-56.76 -8.02,-21.28 -21.13,-41.43 -39.35,-60.49 -18.24,-19.06 -42,-35.08 -71.26,-48.06 -29.29,-12.99 -65.2,-19.48 -107.73,-19.48 -22.65,0 -42.96,3.18 -60.9,9.54 -17.96,6.34 -33.84,14.35 -47.64,24.03 -13.82,9.66 -25.56,20.15 -35.23,31.48 -9.67,11.32 -17.81,21.97 -24.44,31.91 -9.94,-34.26 -14.91,-74.31 -14.91,-120.161 0,-31.477 4.56,-59.789 13.67,-84.93 9.11,-25.137 21.67,-46.539 37.7,-64.219 16.02,-17.691 35.07,-31.211 57.17,-40.601 22.09,-9.399 46.41,-14.09 72.92,-14.09 33.15,0 62.15,5.672 87.01,17 24.86,11.301 46.53,25.531 65.04,42.66 18.51,17.121 34.52,35.762 48.07,55.941 13.52,20.149 25.27,38.661 35.21,55.52 9.95,16.84 18.65,30.789 26.11,41.84 7.45,11.05 14.76,16.29 21.95,15.74 3.32,0 4.97,-2.77 4.97,-8.29 0,-2.76 -0.28,-5.52 -0.83,-8.278 -0.56,-2.77 -1.38,-5.532 -2.48,-8.293" /><path
         id="path28"
         style="fill:#357cb8;fill-opacity:1;fill-rule:nonzero;stroke:none"
         d="m 5988.43,743.129 c 1.65,-4.438 2.9,-8.02 3.72,-10.77 0.83,-2.777 1.25,-5.527 1.25,-8.296 0,-4.973 -2.07,-7.872 -6.22,-8.704 -4.14,-0.828 -8.43,-1.789 -12.84,-2.898 -1.12,-0.551 -2.22,-3.18 -3.31,-7.871 -1.12,-4.699 -2.63,-9.809 -4.57,-15.32 -1.94,-5.52 -4.97,-10.489 -9.11,-14.918 -4.15,-4.422 -9.81,-6.633 -16.99,-6.633 -23.2,1.66 -41.42,6.773 -54.69,15.332 -13.25,8.558 -23.2,20.301 -29.82,35.211 -6.63,14.929 -10.78,32.738 -12.43,53.449 -1.66,20.711 -2.49,43.781 -2.49,69.191 0,29.828 1.25,61.039 3.73,93.629 2.49,32.59 5.39,64.348 8.7,95.299 3.31,30.92 6.21,60.07 8.7,87.42 2.48,27.34 3.73,50.67 3.73,70.02 0,28.17 -2.36,49.99 -7.04,65.46 -4.71,15.46 -11.19,23.2 -19.47,23.2 -3.88,0 -13.82,-11.47 -29.84,-34.39 -16.02,-22.93 -35.21,-57.59 -57.58,-103.99 -22.38,-46.41 -46.41,-104.7 -72.09,-174.839 -25.7,-70.16 -50.14,-152.461 -73.33,-246.93 -1.12,-3.871 -1.66,-8.011 -1.66,-12.429 0,-4.422 -0.29,-8.43 -0.83,-12.012 -0.56,-3.598 -1.8,-6.629 -3.74,-9.121 -1.94,-2.477 -4.84,-3.727 -8.7,-3.727 -7.74,0 -13.8,1.528 -18.22,4.559 -4.43,3.051 -8.29,6.351 -11.6,9.941 -3.32,3.59 -6.36,6.899 -9.12,9.949 -2.77,3.028 -6.36,4.551 -10.77,4.551 -1.65,0 -3.04,-1.113 -4.14,-3.312 -1.12,-2.211 -2.49,-4.84 -4.14,-7.871 -1.66,-3.047 -3.61,-5.668 -5.81,-7.868 -2.21,-2.211 -5.25,-3.32 -9.12,-3.32 -3.31,0 -6.91,0.699 -10.77,2.07 -3.86,1.379 -7.73,4.981 -11.6,10.77 -3.87,5.801 -7.04,14.371 -9.52,25.691 -2.49,11.317 -3.73,26.649 -3.73,45.989 v 37.289 c 0,7.73 0.83,19.742 2.48,36.039 1.66,16.293 3.45,35.222 5.39,56.773 1.92,21.539 4.14,44.867 6.63,70.008 2.48,25.129 4.69,50.68 6.63,76.65 1.93,25.96 3.59,51.38 4.97,76.23 1.37,24.86 2.07,47.51 2.07,67.95 0,62.42 -7.74,93.63 -23.2,93.63 -3.87,0 -8.29,-1.39 -13.26,-4.14 -4.97,-2.77 -10.91,-8.43 -17.81,-16.99 -6.92,-8.57 -14.92,-20.71 -24.04,-36.46 -9.11,-15.74 -19.33,-36.74 -30.65,-62.98 -11.33,-26.24 -24.32,-58.28 -38.95,-96.11 -14.65,-37.84 -30.8,-83.28 -48.47,-136.311 -3.87,-11.598 -8.16,-28.578 -12.85,-50.949 -4.69,-22.379 -8.98,-45.168 -12.84,-68.368 -3.87,-23.203 -7.04,-44.613 -9.53,-64.211 -2.48,-19.621 -3.73,-32.461 -3.73,-38.539 0,-1.66 -2.9,-4.281 -8.7,-7.871 -5.8,-3.601 -12.57,-7.039 -20.3,-10.359 -7.74,-3.313 -15.61,-6.211 -23.62,-8.703 -8,-2.477 -14.23,-3.727 -18.64,-3.727 -9.39,0 -16.57,2.637 -21.54,7.879 -4.97,5.238 -8.7,14.91 -11.18,28.988 -2.49,14.102 -3.88,33.422 -4.15,58.012 -0.29,24.57 -0.41,56.199 -0.41,94.871 0,9.949 0.41,29.559 1.24,58.84 0.83,29.27 2.34,62.969 4.56,101.088 2.19,38.12 4.97,78.02 8.28,119.73 3.32,41.71 7.18,79.96 11.6,114.77 4.41,34.8 9.66,63.51 15.74,86.18 6.08,22.64 12.98,33.96 20.72,33.96 3.86,0 7.46,-1.37 10.78,-4.14 3.31,-2.77 6.33,-5.67 9.11,-8.7 2.75,-3.03 5.39,-5.93 7.87,-8.7 2.49,-2.76 5.1,-4.14 7.87,-4.14 2.21,0 4.56,1.1 7.04,3.31 2.49,2.21 4.69,4.84 6.63,7.87 1.93,3.04 3.86,5.67 5.8,7.88 1.94,2.2 3.45,3.31 4.56,3.31 1.66,0 4.14,-2.77 7.45,-8.29 3.32,-5.52 6.5,-12.01 9.53,-19.47 3.04,-7.45 5.81,-15.19 8.3,-23.19 2.48,-8.02 3.73,-14.23 3.73,-18.65 0,-11.06 -0.98,-26.8 -2.9,-47.23 -1.95,-20.44 -4.15,-42.96 -6.64,-67.53 -2.49,-24.59 -4.69,-49.59 -6.63,-74.99 -1.94,-25.42 -2.9,-48.89 -2.9,-70.44 v -3.31 c 7.18,23.75 15.61,48.19 25.28,73.33 9.66,25.14 20.3,49.72 31.9,73.75 11.6,24.03 23.89,46.82 36.88,68.36 12.97,21.54 26.64,40.32 41.01,56.35 14.36,16.01 29,28.72 43.92,38.11 14.91,9.39 30.1,14.09 45.57,14.09 18.77,0 34.93,-3.19 48.47,-9.53 13.54,-6.36 24.44,-15.2 32.74,-26.51 8.28,-11.33 14.35,-24.32 18.23,-38.95 3.86,-14.65 5.8,-30.24 5.8,-46.81 0,-14.38 -0.98,-30.95 -2.9,-49.72 -1.95,-18.79 -4.02,-39.65 -6.22,-62.57 -2.22,-22.93 -4.29,-48.06 -6.21,-75.4 -1.95,-27.34 -3.19,-57.04 -3.73,-89.068 7.16,19.879 15.87,43.768 26.1,71.668 10.21,27.89 21.54,56.76 33.97,86.59 12.43,29.83 25.69,59.38 39.77,88.66 14.09,29.28 28.31,55.52 42.68,78.72 14.36,23.21 28.85,41.98 43.5,56.35 14.63,14.36 28.59,21.54 41.85,21.54 3.85,0 12.56,-1.25 26.1,-3.73 13.53,-2.49 27.88,-6.08 43.09,-10.77 15.18,-4.7 29.41,-10.5 42.67,-17.4 13.25,-6.91 22.08,-14.79 26.52,-23.61 4.41,-9.41 8.41,-22.52 12.01,-39.37 3.58,-16.85 5.39,-39.35 5.39,-67.53 0,-24.85 -1.81,-54.56 -5.39,-89.07 -3.6,-34.53 -9.82,-76.1 -18.64,-124.708 -2.78,-16.031 -4.57,-31.492 -5.39,-46.402 -0.83,-14.918 -1.25,-29.559 -1.25,-43.918 0,-21.012 0.96,-40.61 2.9,-58.832 1.94,-18.231 4.28,-34.528 7.05,-48.891 2.76,-14.367 5.51,-26.66 8.29,-36.867 2.75,-10.231 5.24,-17.282 7.46,-21.133" /><path
         id="path30"
         style="fill:#357cb8;fill-opacity:1;fill-rule:nonzero;stroke:none"
         d="m 6473.16,1024.86 c -16.57,-6.09 -34.8,-14.09 -54.68,-24.04 -19.9,-9.941 -40.06,-21.679 -60.49,-35.211 -20.45,-13.55 -40.89,-29.14 -61.32,-46.82 -20.45,-17.68 -39.5,-37.277 -57.18,-58.828 -20.99,-24.859 -36.19,-46.961 -45.57,-66.289 -9.4,-19.34 -15.2,-35.77 -17.41,-49.301 -2.2,-13.551 -1.65,-24.172 1.66,-31.91 3.32,-7.731 7.18,-12.422 11.61,-14.082 17.11,-6.629 34.93,-7.32 53.44,-2.07 18.5,5.242 37,14.632 55.52,28.171 18.5,13.532 36.46,29.829 53.86,48.891 17.4,19.051 33.83,38.66 49.3,58.828 15.46,20.172 29.27,40.051 41.43,59.66 12.15,19.61 22.09,36.59 29.83,50.961 z m 149.98,147.49 c 0.54,-19.34 -1.11,-42.96 -4.97,-70.84 -3.87,-27.9 -8.29,-57.74 -13.26,-89.5 -4.97,-31.768 -9.67,-64.209 -14.08,-97.358 -4.43,-33.14 -6.63,-64.363 -6.63,-93.632 0,-19.348 1.37,-37.711 4.14,-55.11 2.75,-17.398 7.46,-32.461 14.09,-45.16 3.86,-7.18 5.93,-13.539 6.21,-19.059 0.28,-5.531 -0.14,-10.351 -1.24,-14.5 -1.11,-4.14 -2.21,-7.722 -3.32,-10.769 -1.11,-3.031 -1.11,-5.93 0,-8.703 1.11,-2.758 0.83,-5.93 -0.83,-9.52 -1.65,-3.597 -4.14,-6.91 -7.45,-9.957 -3.32,-3.023 -7.04,-5.23 -11.19,-6.621 -4.14,-1.371 -7.87,-0.949 -11.18,1.238 -6.09,3.871 -10.92,6.09 -14.5,6.633 -3.61,0.559 -6.64,0.41 -9.12,-0.422 -2.49,-0.828 -4.7,-1.781 -6.63,-2.898 -1.94,-1.09 -4.28,-1.09 -7.05,0 -9.39,4.969 -19.61,10.777 -30.65,17.41 -11.06,6.629 -18.23,13.809 -21.54,21.539 -2.22,3.32 -4.29,8.828 -6.22,16.57 -1.94,7.739 -3.6,16.848 -4.98,27.348 -1.37,10.481 -2.62,21.813 -3.72,33.973 -1.11,12.148 -1.94,24.027 -2.49,35.629 -18.23,-34.25 -37.7,-62.7 -58.41,-85.352 -20.72,-22.648 -41.43,-40.73 -62.15,-54.258 -20.72,-13.539 -41.16,-23.07 -61.32,-28.601 -20.17,-5.52 -38.53,-8.278 -55.1,-8.278 -17.13,0 -32.19,2.207 -45.17,6.618 -12.97,4.441 -23.06,9.679 -30.24,15.75 -27.07,27.07 -46.27,49.019 -57.59,65.871 -11.33,16.851 -16.43,30.519 -15.32,41.019 2.75,35.352 11.31,67.949 25.68,97.781 14.36,29.829 32.32,57.309 53.86,82.438 21.54,25.141 45.7,47.781 72.51,67.953 26.79,20.158 54.13,38.118 82.03,53.858 27.89,15.74 55.37,29 82.44,39.78 27.06,10.77 51.65,19.47 73.75,26.1 -1.11,29.83 -2.35,55.93 -3.73,78.3 -1.38,22.37 -3.45,38.81 -6.21,49.31 -8.29,34.24 -20.99,59.78 -38.11,76.65 -17.13,16.83 -37.84,25.27 -62.15,25.27 -15.47,0 -31.08,-5.8 -46.82,-17.4 -15.74,-11.6 -29.97,-27.35 -42.67,-47.24 -12.72,-19.88 -23.07,-42.81 -31.08,-68.77 -8.01,-25.97 -12.29,-53.32 -12.84,-82.04 0,-7.18 0.27,-14.08 0.83,-20.71 0.55,-6.63 1.38,-13.55 2.49,-20.72 0.54,-3.87 -0.7,-6.63 -3.73,-8.29 -3.05,-1.65 -6.78,-2.9 -11.19,-3.72 -4.42,-0.83 -9.11,-1.53 -14.08,-2.08 -4.97,-0.55 -9.12,-1.37 -12.43,-2.48 -2.78,-1.11 -4.98,-1.79 -6.64,-2.07 -1.65,-0.28 -3.31,0 -4.97,0.83 -1.66,0.82 -3.73,2.35 -6.21,4.55 -2.49,2.21 -5.94,4.97 -10.36,8.29 -4.42,3.31 -8.98,6.08 -13.67,8.29 -4.7,2.2 -8.84,4.15 -12.43,5.8 -3.6,1.66 -6.62,3.17 -9.11,4.56 -2.49,1.36 -3.73,3.17 -3.73,5.38 0,34.25 7.58,69.61 22.79,106.06 15.18,36.47 35.62,69.74 61.31,99.86 25.69,30.09 55.52,54.81 89.49,74.16 33.97,19.32 70.02,29 108.13,29 30.94,0 57.73,-4.71 80.39,-14.09 22.64,-9.4 41.97,-21.55 57.99,-36.46 16.02,-14.92 29.13,-31.49 39.37,-49.71 10.21,-18.24 18.22,-36.61 24.02,-55.11 5.8,-18.52 9.95,-35.92 12.43,-52.2 2.49,-16.31 4.01,-29.71 4.56,-40.19" /><path
         id="path32"
         style="fill:#357cb8;fill-opacity:1;fill-rule:nonzero;stroke:none"
         d="m 7264.49,722.41 c 0,-6.629 -2.35,-13.961 -7.04,-21.961 -4.7,-8.019 -11.47,-12.008 -20.3,-12.008 -4.97,0 -8.85,1.368 -11.6,4.141 -2.78,2.75 -5.53,4.137 -8.28,4.137 -3.88,0 -7.61,-1.387 -11.2,-4.137 -3.6,-2.773 -9.53,-4.141 -17.81,-4.141 -11.05,0 -20.58,3.989 -28.59,12.008 -8.01,8 -14.49,18.231 -19.47,30.66 -4.98,12.43 -8.7,25.961 -11.19,40.602 -2.49,14.629 -3.73,28.301 -3.73,41.019 0,24.86 0.96,53.161 2.9,84.93 1.94,31.77 4.14,64.352 6.63,97.781 2.48,33.419 4.69,66.699 6.64,99.849 1.92,33.14 2.9,63.8 2.9,91.98 0,37.56 -2.49,66.82 -7.47,87.83 -4.97,20.99 -13.81,31.48 -26.51,31.48 -12.16,-1.66 -24.59,-12.15 -37.28,-31.48 -12.72,-19.35 -25.7,-44.06 -38.95,-74.16 -13.26,-30.12 -26.25,-64.09 -38.94,-101.92 -12.72,-37.85 -25,-76.52 -36.88,-116.008 -11.88,-39.5 -23.08,-77.891 -33.56,-115.18 -10.5,-37.281 -19.89,-70.57 -28.18,-99.852 -8.28,-29.289 -15.47,-52.898 -21.54,-70.839 -6.08,-17.95 -10.23,-26.93 -12.42,-26.93 -4.44,0 -7.75,0.961 -9.95,2.898 -2.21,1.942 -4.29,4.012 -6.21,6.211 -1.95,2.219 -4.29,4.289 -7.05,6.219 -2.77,1.922 -6.91,2.902 -12.43,2.902 -4.97,0 -8.29,-0.562 -9.94,-1.66 -1.66,-1.101 -3.6,-2.492 -5.8,-4.14 -2.22,-1.661 -4.97,-3.032 -8.29,-4.149 -3.31,-1.101 -9.11,-1.652 -17.4,-1.652 -9.94,0 -19.76,2.48 -29.42,7.449 -9.67,4.981 -14.5,12.703 -14.5,23.203 0,6.629 1.1,20.309 3.32,41.02 2.2,20.718 4.83,46.117 7.87,76.238 3.03,30.102 6.34,63.801 9.94,101.082 3.59,37.297 6.91,75.818 9.95,115.598 3.02,39.77 5.66,79.55 7.87,119.31 2.2,39.78 3.32,77.61 3.32,113.53 0,17.68 -0.29,34.1 -0.83,49.31 -0.56,15.18 -0.83,29.68 -0.83,43.49 0,3.32 1.66,4.97 4.97,4.97 6.63,0 11.73,-1.24 15.33,-3.73 3.58,-2.48 6.21,-5.1 7.87,-7.87 1.66,-2.76 2.62,-5.38 2.9,-7.87 0.27,-2.48 0.68,-3.72 1.24,-3.72 1.66,0 3.58,0.96 5.8,2.89 2.21,1.93 4.56,4 7.04,6.22 2.49,2.2 4.84,4.27 7.05,6.21 2.2,1.94 4.14,2.9 5.8,2.9 h 8.29 c 8.29,0 14.09,1.24 17.4,3.73 3.31,2.49 5.65,5.25 7.04,8.29 1.38,3.03 2.34,5.79 2.9,8.29 0.55,2.49 2.21,3.73 4.97,3.73 1.66,0 4,-1.24 7.04,-3.73 3.04,-2.5 6.08,-6.64 9.12,-12.44 3.03,-5.8 5.66,-13.39 7.87,-22.78 2.2,-9.4 3.31,-20.71 3.31,-33.97 0,-17.69 -0.69,-40.06 -2.07,-67.12 -1.38,-27.07 -3.03,-55.93 -4.97,-86.6 -1.94,-30.65 -3.73,-61.6 -5.38,-92.8 -1.66,-31.21 -2.77,-59.53 -3.32,-84.928 6.08,23.738 13.39,50.128 21.96,79.128 8.56,29.01 18.5,58.42 29.83,88.25 11.32,29.83 23.62,58.96 36.87,87.42 13.27,28.44 27.62,53.72 43.09,75.82 15.46,22.09 31.77,39.9 48.9,53.44 17.11,13.53 35.06,20.31 53.85,20.31 29.83,0 54.28,-5.53 73.33,-16.58 19.07,-11.05 34.11,-26.25 45.16,-45.57 11.04,-19.35 18.65,-41.99 22.79,-67.95 4.14,-25.97 6.21,-53.86 6.21,-83.69 0,-25.41 -1.11,-52.07 -3.31,-79.96 -2.21,-27.9 -4.56,-55.81 -7.04,-83.69 -2.49,-27.908 -4.7,-55.389 -6.63,-82.451 -1.94,-27.067 -2.9,-52.489 -2.9,-76.227 0,-29.281 1.65,-55.66 4.97,-79.14 3.31,-23.481 4.97,-41.301 4.97,-53.442" /><path
         id="path34"
         style="fill:#357cb8;fill-opacity:1;fill-rule:nonzero;stroke:none"
         d="M 1480.22,347.371 V 276.52 h 95.14 v -44.95 h -95.14 V 156.68 H 1587.5 V 110.531 H 1423.54 V 393.52 h 163.96 v -46.149 h -107.28" /><path
         id="path36"
         style="fill:#357cb8;fill-opacity:1;fill-rule:nonzero;stroke:none"
         d="m 1778.99,110.531 -46.15,69.629 -40.89,-69.629 h -60.72 l 73.27,112.551 -74.08,111.738 h 63.96 l 45.75,-69.23 41.3,69.23 h 60.72 l -73.68,-111.738 74.49,-112.551 h -63.97" /><path
         id="path38"
         style="fill:#357cb8;fill-opacity:1;fill-rule:nonzero;stroke:none"
         d="m 2056.92,258.5 c -5.53,9.852 -12.82,17.34 -21.86,22.469 -9.04,5.133 -18.82,7.691 -29.35,7.691 -10.26,0 -19.91,-2.629 -28.95,-7.898 -9.05,-5.262 -16.33,-12.891 -21.86,-22.871 -5.53,-9.989 -8.3,-21.731 -8.3,-35.219 0,-13.5 2.77,-25.242 8.3,-35.223 5.53,-9.988 12.81,-17.609 21.86,-22.879 9.04,-5.261 18.69,-7.89 28.95,-7.89 10.53,0 20.31,2.699 29.35,8.101 9.04,5.399 16.33,13.078 21.86,23.071 5.53,9.98 8.3,21.867 8.3,35.628 0,13.489 -2.77,25.161 -8.3,35.02 z m -80.16,69.641 c 12.82,6.879 27.46,10.32 43.93,10.32 19.16,0 36.5,-4.731 52.02,-14.172 15.52,-9.449 27.8,-22.867 36.84,-40.277 9.04,-17.422 13.57,-37.59 13.57,-60.532 0,-22.941 -4.53,-43.25 -13.57,-60.929 -9.04,-17.672 -21.32,-31.379 -36.84,-41.09 -15.52,-9.719 -32.86,-14.57 -52.02,-14.57 -16.47,0 -30.97,3.379 -43.52,10.109 -12.56,6.75 -22.75,15.25 -30.57,25.512 V 3.65234 h -56.68 V 334.82 h 56.68 v -32.398 c 7.29,10.258 17.34,18.828 30.16,25.719" /><path
         id="path40"
         style="fill:#357cb8;fill-opacity:1;fill-rule:nonzero;stroke:none"
         d="m 2330.4,243.719 c -0.28,14.582 -5.54,26.25 -15.8,35.023 -10.25,8.77 -22.81,13.16 -37.65,13.16 -14.03,0 -25.84,-4.254 -35.42,-12.75 -9.58,-8.5 -15.46,-20.312 -17.61,-35.433 z m 57.08,-38.047 h -163.96 c 1.34,-16.203 7.01,-28.883 17,-38.063 9.98,-9.179 22.26,-13.757 36.84,-13.757 21.05,0 36.03,9.027 44.93,27.117 h 61.14 c -6.48,-21.59 -18.89,-39.34 -37.25,-53.227 -18.35,-13.91 -40.89,-20.851 -67.61,-20.851 -21.59,0 -40.96,4.781 -58.09,14.371 -17.15,9.57 -30.5,23.136 -40.08,40.687 -9.58,17.531 -14.37,37.781 -14.37,60.723 0,23.207 4.72,43.578 14.17,61.129 9.44,17.551 22.67,31.039 39.67,40.488 17.01,9.441 36.57,14.172 58.7,14.172 21.32,0 40.42,-4.59 57.29,-13.77 16.86,-9.171 29.96,-22.199 39.27,-39.062 9.31,-16.879 13.97,-36.227 13.97,-58.098 0,-8.09 -0.55,-15.379 -1.62,-21.859" /><path
         id="path42"
         style="fill:#357cb8;fill-opacity:1;fill-rule:nonzero;stroke:none"
         d="m 2531.8,327.93 c 11.74,6.75 25.16,10.121 40.28,10.121 v -59.512 h -14.98 c -17.81,0 -31.24,-4.18 -40.28,-12.547 -9.05,-8.371 -13.56,-22.941 -13.56,-43.722 V 110.531 h -56.68 V 334.82 h 56.68 V 300 c 7.28,11.871 16.8,21.18 28.54,27.93" /><path
         id="path44"
         style="fill:#357cb8;fill-opacity:1;fill-rule:nonzero;stroke:none"
         d="M 2692.32,288.25 V 179.762 c 0,-7.563 1.82,-13.032 5.46,-16.403 3.65,-3.379 9.78,-5.058 18.43,-5.058 h 26.31 v -47.77 h -35.63 c -47.77,0 -71.66,23.211 -71.66,69.629 v 108.09 h -26.71 v 46.57 h 26.71 v 55.461 h 57.09 V 334.82 h 50.2 v -46.57 h -50.2" /><path
         id="path46"
         style="fill:#357cb8;fill-opacity:1;fill-rule:nonzero;stroke:none"
         d="m 3065.98,258.102 c -5.4,9.839 -12.69,17.398 -21.86,22.66 -9.18,5.269 -19.03,7.898 -29.55,7.898 -10.53,0 -20.25,-2.558 -29.15,-7.691 -8.91,-5.129 -16.13,-12.617 -21.67,-22.469 -5.53,-9.859 -8.29,-21.531 -8.29,-35.02 0,-13.5 2.76,-25.3 8.29,-35.421 5.54,-10.129 12.82,-17.879 21.87,-23.278 9.04,-5.402 18.69,-8.101 28.95,-8.101 10.52,0 20.37,2.629 29.55,7.89 9.17,5.27 16.46,12.821 21.86,22.68 5.4,9.852 8.1,21.66 8.1,35.422 0,13.769 -2.7,25.57 -8.1,35.43 z m -154.85,25.699 c 9.04,17.551 21.38,31.039 37.04,40.488 15.65,9.441 33.06,14.172 52.23,14.172 14.57,0 28.47,-3.172 41.69,-9.512 13.23,-6.347 23.75,-14.777 31.58,-25.308 v 106.48 h 57.49 v -299.59 h -57.49 v 33.188 C 3066.65,132.66 3056.8,123.75 3044.12,117 c -12.69,-6.73 -27.4,-10.109 -44.13,-10.109 -18.9,0 -36.17,4.851 -51.82,14.57 -15.66,9.711 -28,23.418 -37.04,41.09 -9.05,17.679 -13.57,37.988 -13.57,60.929 0,22.672 4.52,42.77 13.57,60.321" /><path
         id="path48"
         style="fill:#357cb8;fill-opacity:1;fill-rule:nonzero;stroke:none"
         d="M 3414.55,334.82 V 110.531 h -57.08 v 28.34 c -7.29,-9.719 -16.8,-17.34 -28.54,-22.871 -11.74,-5.531 -24.5,-8.301 -38.26,-8.301 -17.55,0 -33.07,3.699 -46.56,11.133 -13.5,7.418 -24.09,18.348 -31.78,32.789 -7.69,14.438 -11.54,31.641 -11.54,51.621 V 334.82 h 56.68 V 211.34 c 0,-17.809 4.45,-31.508 13.36,-41.09 8.91,-9.59 21.05,-14.379 36.44,-14.379 15.65,0 27.93,4.789 36.84,14.379 8.91,9.582 13.36,23.281 13.36,41.09 v 123.48 h 57.08" /><path
         id="path50"
         style="fill:#357cb8;fill-opacity:1;fill-rule:nonzero;stroke:none"
         d="m 3840.85,110.531 h -56.68 l -128.34,193.93 v -193.93 h -56.67 V 393.52 h 56.67 L 3784.17,199.191 V 393.52 h 56.68 V 110.531" /><path
         id="path52"
         style="fill:#357cb8;fill-opacity:1;fill-rule:nonzero;stroke:none"
         d="m 4062.71,243.719 c -0.28,14.582 -5.53,26.25 -15.79,35.023 -10.27,8.77 -22.81,13.16 -37.65,13.16 -14.05,0 -25.86,-4.254 -35.43,-12.75 -9.59,-8.5 -15.45,-20.312 -17.62,-35.433 z m 57.08,-38.047 h -163.96 c 1.35,-16.203 7.01,-28.883 16.99,-38.063 9.98,-9.179 22.27,-13.757 36.86,-13.757 21.03,0 36.01,9.027 44.92,27.117 h 61.13 c -6.46,-21.59 -18.88,-39.34 -37.24,-53.227 -18.36,-13.91 -40.88,-20.851 -67.6,-20.851 -21.6,0 -40.96,4.781 -58.11,14.371 -17.13,9.57 -30.5,23.136 -40.07,40.687 -9.59,17.531 -14.38,37.781 -14.38,60.723 0,23.207 4.73,43.578 14.18,61.129 9.43,17.551 22.68,31.039 39.67,40.488 17.01,9.441 36.56,14.172 58.71,14.172 21.31,0 40.41,-4.59 57.28,-13.77 16.86,-9.171 29.96,-22.199 39.26,-39.062 9.32,-16.879 13.99,-36.227 13.99,-58.098 0,-8.09 -0.55,-15.379 -1.63,-21.859" /><path
         id="path54"
         style="fill:#357cb8;fill-opacity:1;fill-rule:nonzero;stroke:none"
         d="M 4244.87,288.25 V 179.762 c 0,-7.563 1.82,-13.032 5.47,-16.403 3.65,-3.379 9.79,-5.058 18.42,-5.058 h 26.31 v -47.77 h -35.63 c -47.77,0 -71.64,23.211 -71.64,69.629 v 108.09 h -26.74 v 46.57 h 26.74 v 55.461 h 57.07 V 334.82 h 50.2 v -46.57 h -50.2" /><path
         id="path56"
         style="fill:#357cb8;fill-opacity:1;fill-rule:nonzero;stroke:none"
         d="M 4418.15,288.25 V 179.762 c 0,-7.563 1.82,-13.032 5.47,-16.403 3.64,-3.379 9.77,-5.058 18.42,-5.058 h 26.31 v -47.77 h -35.63 c -47.77,0 -71.66,23.211 -71.66,69.629 v 108.09 h -26.71 v 46.57 h 26.71 v 55.461 h 57.09 V 334.82 h 50.2 v -46.57 h -50.2" /><path
         id="path58"
         style="fill:#357cb8;fill-opacity:1;fill-rule:nonzero;stroke:none"
         d="m 4653.97,163.77 c 9.05,4.992 16.25,12.48 21.66,22.46 5.4,9.981 8.09,22.129 8.09,36.442 0,21.32 -5.6,37.707 -16.8,49.187 -11.21,11.473 -24.9,17.204 -41.09,17.204 -16.19,0 -29.75,-5.731 -40.68,-17.204 -10.94,-11.48 -16.41,-27.867 -16.41,-49.187 0,-21.32 5.33,-37.723 16,-49.192 10.66,-11.48 24.1,-17.199 40.29,-17.199 10.25,0 19.9,2.489 28.94,7.489 z m -87.24,-42.508 c -17.29,9.57 -30.84,23.136 -40.69,40.687 -9.86,17.531 -14.78,37.781 -14.78,60.723 0,22.937 5.06,43.18 15.18,60.73 10.13,17.539 23.96,31.098 41.5,40.68 17.54,9.578 37.11,14.379 58.71,14.379 21.58,0 41.15,-4.801 58.69,-14.379 17.54,-9.582 31.39,-23.141 41.51,-40.68 10.11,-17.55 15.17,-37.793 15.17,-60.73 0,-22.942 -5.19,-43.192 -15.58,-60.723 -10.4,-17.551 -24.44,-31.117 -42.11,-40.687 -17.68,-9.59 -37.45,-14.371 -59.3,-14.371 -21.6,0 -41.04,4.781 -58.3,14.371" /><path
         id="path60"
         style="fill:#357cb8;fill-opacity:1;fill-rule:nonzero;stroke:none"
         d="M 5014.48,334.82 4875.62,4.46094 h -60.32 l 48.58,111.73006 -89.89,218.629 h 63.58 l 57.89,-156.679 58.69,156.679 h 60.33" /><path
         id="path62"
         style="fill:#357cb8;fill-opacity:1;fill-rule:nonzero;stroke:none"
         d="m 5214.87,258.102 c -5.39,9.839 -12.67,17.398 -21.85,22.66 -9.18,5.269 -19.03,7.898 -29.55,7.898 -10.53,0 -20.26,-2.558 -29.16,-7.691 -8.91,-5.129 -16.14,-12.617 -21.66,-22.469 -5.53,-9.859 -8.3,-21.531 -8.3,-35.02 0,-13.5 2.77,-25.3 8.3,-35.421 5.52,-10.129 12.83,-17.879 21.87,-23.278 9.02,-5.402 18.67,-8.101 28.95,-8.101 10.52,0 20.37,2.629 29.55,7.89 9.18,5.27 16.46,12.821 21.85,22.68 5.39,9.852 8.11,21.66 8.11,35.422 0,13.769 -2.72,25.57 -8.11,35.43 z m -154.84,25.699 c 9.02,17.551 21.31,31.039 36.84,40.488 15.5,9.441 32.85,14.172 52.03,14.172 16.72,0 31.36,-3.379 43.92,-10.121 12.54,-6.758 22.6,-15.25 30.16,-25.508 v 31.988 h 57.07 V 110.531 h -57.07 v 32.789 c -7.29,-10.519 -17.35,-19.23 -30.16,-26.109 -12.83,-6.891 -27.61,-10.32 -44.33,-10.32 -18.91,0 -36.12,4.851 -51.62,14.57 -15.53,9.711 -27.82,23.418 -36.84,41.09 -9.04,17.679 -13.57,37.988 -13.57,60.929 0,22.672 4.53,42.77 13.57,60.321" /><path
         id="path64"
         style="fill:#357cb8;fill-opacity:1;fill-rule:nonzero;stroke:none"
         d="m 5505.56,258.102 c -5.41,9.839 -12.7,17.398 -21.88,22.66 -9.18,5.269 -19.02,7.898 -29.55,7.898 -10.53,0 -20.23,-2.558 -29.14,-7.691 -8.91,-5.129 -16.13,-12.617 -21.66,-22.469 -5.55,-9.859 -8.3,-21.531 -8.3,-35.02 0,-13.5 2.75,-25.3 8.3,-35.421 5.53,-10.129 12.81,-17.879 21.86,-23.278 9.04,-5.402 18.69,-8.101 28.94,-8.101 10.53,0 20.37,2.629 29.55,7.89 9.18,5.27 16.47,12.821 21.88,22.68 5.39,9.852 8.08,21.66 8.08,35.422 0,13.769 -2.69,25.57 -8.08,35.43 z m -21.88,70.437 c 12.7,-6.609 22.68,-15.18 29.96,-25.707 v 31.988 h 57.09 V 108.91 c 0,-20.7811 -4.18,-39.3397 -12.56,-55.6678 -8.36,-16.3203 -20.91,-29.2813 -37.63,-38.8633 C 5503.8,4.80078 5483.54,0 5459.79,0 5427.96,0 5401.85,7.42969 5381.47,22.2813 5361.08,37.1211 5349.54,57.3711 5346.85,83 h 56.27 c 2.96,-10.25 9.37,-18.418 19.23,-24.4883 9.85,-6.082 21.8,-9.1133 35.84,-9.1133 16.45,0 29.81,4.9336 40.08,14.7735 10.26,9.8594 15.37,24.7695 15.37,44.7381 v 34.809 c -7.28,-10.508 -17.34,-19.289 -30.15,-26.309 -12.82,-7.019 -27.46,-10.519 -43.93,-10.519 -18.89,0 -36.17,4.851 -51.82,14.57 -15.66,9.711 -28,23.418 -37.05,41.09 -9.04,17.679 -13.55,37.988 -13.55,60.929 0,22.672 4.51,42.77 13.55,60.321 9.05,17.551 21.33,31.039 36.84,40.488 15.53,9.441 32.87,14.172 52.03,14.172 16.74,0 31.45,-3.313 44.12,-9.922" /><path
         id="path66"
         style="fill:#357cb8;fill-opacity:1;fill-rule:nonzero;stroke:none"
         d="m 5792.18,243.719 c -0.28,14.582 -5.53,26.25 -15.78,35.023 -10.26,8.77 -22.82,13.16 -37.66,13.16 -14.02,0 -25.84,-4.254 -35.41,-12.75 -9.59,-8.5 -15.47,-20.312 -17.62,-35.433 z m 57.09,-38.047 H 5685.3 c 1.35,-16.203 7.01,-28.883 17.01,-38.063 9.98,-9.179 22.27,-13.757 36.84,-13.757 21.06,0 36.04,9.027 44.94,27.117 h 61.13 c -6.48,-21.59 -18.9,-39.34 -37.24,-53.227 -18.36,-13.91 -40.9,-20.851 -67.62,-20.851 -21.6,0 -40.96,4.781 -58.08,14.371 -17.15,9.57 -30.51,23.136 -40.08,40.687 -9.59,17.531 -14.38,37.781 -14.38,60.723 0,23.207 4.71,43.578 14.16,61.129 9.46,17.551 22.68,31.039 39.69,40.488 16.99,9.441 36.56,14.172 58.69,14.172 21.33,0 40.41,-4.59 57.29,-13.77 16.87,-9.171 29.96,-22.199 39.27,-39.062 9.32,-16.879 13.97,-36.227 13.97,-58.098 0,-8.09 -0.55,-15.379 -1.62,-21.859" /><path
         id="path68"
         style="fill:#357cb8;fill-opacity:1;fill-rule:nonzero;stroke:none"
         d="m 3418.56,2055.61 c 27.41,0 68.84,0 71.08,-58.23 0.37,-9.43 6.11,-20.03 12.74,-32.32 2.24,-4.13 4.52,-8.36 6.73,-12.76 l 78.44,0.25 c 1.06,4.63 2.1,9.17 3.12,13.71 4.85,21.23 9.42,41.31 15.08,61.35 3.07,10.79 12.8,21.87 23.16,26.37 68.4,29.87 100.95,84.02 102.45,170.38 l 0.19,10.01 c 1.13,62.91 2.3,127.97 0.23,191.68 -3.06,94.51 -1.15,203.97 60.69,306.93 36.06,60.07 -2.03,138.99 -57.98,177.69 -24.62,17.03 -53.16,26.03 -82.55,26.03 -36.87,0 -72.23,-14.16 -99.58,-39.86 -34.87,-32.81 -54.13,-75.08 -58.87,-129.2 -1.88,-21.51 -1.38,-43.97 -0.91,-65.68 0.23,-10.23 0.45,-20.45 0.45,-30.66 v -60.48 l -26.09,54.55 c -51.86,108.45 -49.16,194.28 8.5,270.13 55.58,73.11 136.89,100.78 226.86,77.22 103.45,-27.07 164.68,-98.33 186.58,-217.51 1.4,3.45 2.46,6.26 3.47,8.95 1.43,3.8 2.79,7.39 4.76,12.01 14.78,34.5 -7.16,88.7 -22.48,115.28 -55.88,85.47 -145.62,109.83 -217.5,121.43 l -11.52,1.87 0.03,51.6 c 0.04,29.68 0.07,58.71 -0.09,87.76 -0.24,44.32 -15.43,84.92 -45.13,120.69 -42.13,50.74 -98.17,75.5 -171.35,75.7 -133.24,0.36 -266.45,0.44 -399.68,0.51 l -207.52,0.14 c -73.38,0 -126.7,-9.38 -168.79,-56.05 l -9.68,-10.73 -10.21,10.22 c -37.64,37.69 -83.12,56.03 -139.04,56.07 -52.39,0.04 -104.79,0.2 -157.2,0.36 -61.02,0.18 -122.03,0.38 -183.04,0.38 -121.97,0 -220.48,-0.8 -310.04,-2.52 -40.67,-0.77 -88.72,-15.31 -128.54,-38.88 -63.02,-37.35 -91.52,-100.6 -87.1,-193.38 0.29,-6.23 1,-12.86 1.71,-19.57 2.52,-23.98 5.12,-48.78 -7.22,-66.48 -5.75,-8.26 -19.96,-14.54 -51.54,-27.94 -36.78,-15.62 -87.15,-36.99 -105.38,-59.91 -18.98,-23.91 -23.04,-42.97 -22.53,-55.2 44.73,58.2 112.37,92.34 184.9,92.34 24.84,0 49.33,-4.12 72.82,-12.24 100.99,-34.9 158.06,-128.56 145.4,-238.57 -3.37,-29.12 -10.22,-57.45 -17.47,-87.44 -3.38,-13.97 -6.86,-28.36 -10.11,-43.38 l -20.44,-94.39 -6.65,96.35 c -1.42,20.54 -2.18,40.35 -2.92,59.55 -1.54,40.26 -3,78.29 -10.46,114.22 -13.39,64.67 -71,115.96 -136.99,121.97 -65.44,5.93 -121.91,-26.27 -151.66,-85.96 -25.37,-50.89 -23.47,-100.96 5.49,-144.83 40.01,-60.59 57.45,-128.5 54.91,-213.73 -2.01,-67.34 -1.39,-136.04 -0.79,-202.48 0.23,-25.03 0.46,-50.07 0.55,-75.1 0.3,-81.16 32.86,-134.56 99.53,-163.22 14.26,-6.14 21.56,-23.42 23.46,-28.58 6.49,-17.76 12.01,-35.63 17.86,-54.55 1.42,-4.59 2.86,-9.24 4.33,-13.95 l 80.84,-1.12 c 1.28,5 2.53,9.97 3.77,14.91 5.77,23.04 11.22,44.82 19.23,66.39 7.22,19.36 42.28,20.3 42.63,20.32 30.02,0.67 60,0.76 82.77,0.76 l 72.86,-0.1 283.9,0.04 c 372.38,0.04 757.44,0.09 1136.16,0.88 z m -1621.61,-130.92 -122.1,1.67 -2.99,9.43 c -2.56,8.07 -4.99,15.92 -7.37,23.58 -5.74,18.59 -11.17,36.14 -17.41,53.22 -2.66,7.21 -6.9,12.1 -8.53,12.8 -76.72,32.99 -115.8,96.35 -116.13,188.32 -0.1,24.99 -0.33,49.98 -0.55,74.98 -0.6,66.69 -1.23,135.68 0.8,203.56 2.36,79.29 -13.65,142.14 -50.38,197.76 -34.16,51.77 -36.71,112.91 -7.16,172.21 34.46,69.12 102.54,107.97 178.72,101.04 77.71,-7.1 145.57,-67.54 161.35,-143.74 5.25,-25.32 7.69,-51.06 9.18,-77.63 1.96,10.16 3.59,20.24 4.76,30.29 11.3,98.22 -37.4,178.51 -127.12,209.51 -20.59,7.12 -42.07,10.73 -63.85,10.73 -70.35,0 -135.58,-36.56 -174.46,-97.79 -2.82,-4.43 -7.65,-7.1 -12.89,-7.1 -7.76,0 -14.68,5.49 -19.49,15.45 -4.78,9.9 -17.25,46.14 22.99,96.81 22.58,28.39 74.45,50.4 116.14,68.09 16.27,6.91 36.52,15.5 40.36,19.12 5.9,8.58 3.74,29.09 1.83,47.18 -0.77,7.25 -1.51,14.41 -1.83,21.13 -4.87,102.44 28.96,175.87 100.53,218.3 44.36,26.26 96.13,41.82 141.99,42.7 89.74,1.72 188.42,2.52 310.57,2.52 61.04,0 122.09,-0.2 183.12,-0.38 52.38,-0.16 104.77,-0.31 157.14,-0.36 58.66,-0.04 107.33,-17.9 148.32,-54.53 52.8,50.57 119.45,55.03 178.38,55.03 l 208.54,-0.15 c 133.24,-0.07 266.48,-0.14 399.74,-0.51 80.68,-0.22 145.4,-29.02 192.37,-85.6 33.87,-40.79 51.18,-87.24 51.46,-138.06 0.16,-29.11 0.14,-58.21 0.1,-87.95 l -0.03,-28.3 c 75.34,-13.33 165.85,-41.78 224.96,-132.23 8.42,-14.59 47.28,-86.83 24.32,-140.4 -1.77,-4.18 -3.01,-7.45 -4.31,-10.91 -1.96,-5.18 -4.06,-10.75 -8.09,-19.9 l -2.22,-3.46 c -16.63,-19.13 -23.97,-18.71 -27.04,-19.1 -7.64,0 -13.91,5.62 -14.91,13.36 -16.07,124.42 -70.21,194.58 -170.4,220.8 -79.05,20.7 -149.3,-3.09 -198.08,-67.28 -37.56,-49.41 -48.29,-104.32 -32.3,-169.31 0.22,6.82 0.59,13.64 1.18,20.44 5.28,60.28 27.96,109.68 67.41,146.8 32.47,30.5 74.5,47.29 118.37,47.29 35,0 68.95,-10.67 98.16,-30.9 75.82,-52.42 105.38,-148.58 65.89,-214.36 -52.16,-86.86 -60.42,-179.51 -56.81,-291.93 2.1,-64.39 0.93,-129.8 -0.22,-193.06 l -0.17,-10 c -1.69,-97.02 -40.58,-160.82 -118.92,-195.03 -2.87,-1.25 -6.9,-5.8 -7.73,-8.72 -5.45,-19.32 -9.95,-39.06 -14.71,-59.96 -1.82,-7.98 -3.68,-16.11 -5.62,-24.43 l -2.48,-10.52 -117.83,-0.4 -3.62,8.21 c -2.93,6.65 -6.35,12.93 -9.63,19.01 -7.57,14.02 -15.4,28.49 -16.01,44.28 -1.12,28.74 -9.83,31.86 -43.68,31.86 -380.05,-0.79 -765.14,-0.82 -1137.53,-0.87 l -287.78,-0.04 -68.98,0.09 c -22.62,0 -52.4,-0.07 -82.17,-0.77 -6.82,-0.12 -15.11,-2.51 -18.19,-4.27 -7.12,-19.58 -12.24,-40.05 -17.66,-61.66 -2.12,-8.45 -4.26,-16.99 -6.56,-25.62 l -2.74,-10.34" /><path
         id="path70"
         style="fill:#357cb8;fill-opacity:1;fill-rule:evenodd;stroke:none"
         d="m 3690.26,2631.13 c -19.19,-151.67 27.09,-309.83 -39.49,-456.82 17.93,151.8 -25.15,309.65 39.49,456.82" /><path
         id="path72"
         style="fill:#357cb8;fill-opacity:1;fill-rule:evenodd;stroke:none"
         d="m 1600.78,2631.13 c 66.57,-146.99 20.31,-305.14 39.49,-456.82 -64.64,147.19 -21.54,305.03 -39.49,456.82" /><path
         id="path74"
         style="fill:#357cb8;fill-opacity:1;fill-rule:nonzero;stroke:none"
         d="m 3187.12,2737.27 c 33.92,0 65.26,-8.55 91.92,-19.08 -8.39,5.75 -15.53,10.15 -19.78,11.98 -37.2,15.95 -81.21,15.95 -120.05,15.95 l -16.22,0.01 c -107.57,0.42 -215.09,0.6 -322.64,0.6 -196.9,0 -397.19,-0.63 -612.32,-1.94 -50.46,-0.34 -101.58,-8.96 -140.48,-16.43 -4,-0.76 -8.06,-1.81 -12.13,-3.1 64.11,9.44 229.33,13.7 525.12,13.7 109.14,0 221.69,-0.57 324.45,-1.09 120.94,-0.6 228.37,-1.15 300.65,-0.61 z m -1240.34,-84.26 c -5.79,0 -10.96,2.85 -13.86,7.62 l -1.67,2.78 -0.27,3.24 c -2.79,35.31 67.46,80.23 111.4,88.65 40.05,7.69 92.78,16.57 145.47,16.92 215.21,1.31 415.55,1.95 612.5,1.95 107.58,0 215.15,-0.2 322.74,-0.61 l 16.12,-0.02 c 41.47,0 88.49,0 130.86,-18.16 10.77,-4.63 101.11,-63.93 100.76,-86.57 -0.09,-6.14 -3.85,-11.58 -9.58,-13.84 l -2.43,-0.95 -3.94,-0.2 c -7.91,0 -16.91,4.82 -33.25,13.56 -29.67,15.88 -79.32,42.45 -134.51,42.45 -22.04,-0.16 -45.74,-0.23 -71.78,-0.23 -64.71,0 -144.14,0.4 -230.49,0.84 -102.71,0.52 -215.21,1.09 -324.31,1.09 -116.88,0 -472.54,0 -536.22,-16.25 -10.36,-2.65 -27.46,-14.29 -41.19,-23.65 -18.46,-12.58 -27.72,-18.62 -36.35,-18.62" /><path
         id="path76"
         style="fill:#357cb8;fill-opacity:1;fill-rule:nonzero;stroke:none"
         d="m 3084.24,3049.49 c -18.68,-2.85 -26.47,-11.19 -26.76,-28.46 -0.17,-8.58 2.87,-16.47 8.55,-22.25 5.78,-5.9 13.72,-8.91 22.08,-8.18 17.9,1.41 26.4,10.95 26,29.18 -0.23,11.17 -3.62,26.25 -29.87,29.71 z m 1.52,-86.42 c -14.91,0 -28.88,5.86 -39.31,16.5 -10.88,11.07 -16.7,25.97 -16.41,41.95 0.55,31.38 19.12,51.05 52.28,55.41 l 1.64,0.21 1.64,-0.18 c 34.87,-3.82 55.27,-24.45 55.94,-56.59 0.72,-32.68 -18.93,-54.57 -51.27,-57.13 -1.51,-0.11 -3.01,-0.17 -4.51,-0.17" /><path
         id="path78"
         style="fill:#357cb8;fill-opacity:1;fill-rule:nonzero;stroke:none"
         d="m 3508.41,3044.05 c 9.22,7.27 18.35,14.85 26.87,23.11 7.31,7.1 31.4,32.49 33.7,61.3 4.4,55.42 -9.45,102.24 -40.05,135.36 -31,33.55 -77.34,51.27 -134.09,51.27 h -17.54 c -70.01,0 -140.01,0.09 -210.01,0.18 -108.42,0.13 -216.82,0.27 -325.24,0.08 -132.21,-0.24 -195.45,-62.49 -199.05,-195.87 -0.45,-16.52 -0.85,-33.06 -1.23,-49.6 0,1.2 -0.03,2.39 -0.03,3.59 -0.05,24.38 -0.13,49.59 -2.03,74.49 -8.06,105.94 -72.95,167 -178.02,167.55 -117,0.61 -234.02,0.46 -351.01,0.31 -51.22,-0.06 -102.44,-0.12 -153.64,-0.12 l -63.01,0.03 c -61.32,0 -108.16,-17.91 -139.21,-53.24 -32.81,-37.37 -45.59,-92.51 -36.94,-159.44 3.11,-23.98 29.9,-45.31 45.57,-55.9 58.14,-39.29 96.45,-86.54 113.24,-139.03 13.13,-48.4 36.81,-110.32 36.81,-110.32 l 0.35,45.82 c 0.67,87.87 -46.02,166.12 -135.05,226.26 -19.28,13.02 -32.49,27.43 -33.7,36.69 -7.63,58.89 2.87,106.55 30.35,137.81 25.61,29.16 65.51,43.92 118.93,43.92 l 62.66,-0.04 c 51.22,0 102.45,0.07 153.69,0.12 116.94,0.17 233.88,0.3 350.82,-0.3 90.29,-0.47 143.87,-50.97 150.8,-142.19 1.83,-23.92 1.91,-48.61 1.96,-72.5 0.06,-16.58 0.11,-33.16 0.69,-49.71 1.59,-44.05 3.6,-88.08 5.61,-132.11 l 3.21,-71.56 34.61,0.72 1.02,12.3 c 0.62,7.37 1.34,14.74 2.04,22.13 1.61,16.45 3.27,33.47 3.78,50.46 1.23,40.14 2.08,80.33 2.97,120.49 0.67,30.88 1.34,61.76 2.17,92.63 3.19,118.37 54.55,168.97 171.7,169.17 108.39,0.2 216.76,0.06 325.16,-0.08 70.02,-0.09 140.02,-0.16 210.03,-0.16 h 17.6 c 48.84,0 88.22,-14.69 113.85,-42.45 25.3,-27.38 36.66,-67 32.91,-114.57 -1.16,-14.33 -13.61,-32.32 -25.46,-43.76 -12.32,-11.94 -26.01,-22.37 -40.48,-33.4 -16.34,-12.43 -33.22,-25.31 -47.98,-40.54 -45.41,-46.93 -70.45,-121.8 -59.52,-178.02 l 3.77,-22.1 17.6,13.53 c 1.61,0.94 -19.37,130.79 118.82,217.69" /><path
         id="path80"
         style="fill:#357cb8;fill-opacity:1;fill-rule:nonzero;stroke:none"
         d="m 3019.07,2289.99 c 138.55,0 277.14,-0.13 415.7,-0.72 l 0.72,-13.72 v 13.72 c 13.04,0 21.05,1.75 24.48,5.37 3.31,3.51 4.66,11.43 3.99,23.54 -1.85,33.97 -1.38,68.41 -0.93,101.71 0.18,13.33 0.36,26.65 0.4,39.97 0.08,21.46 -0.93,36.81 -6.05,41.96 -5.2,5.22 -20.73,6.33 -42.46,6.36 l -71.55,0.04 -645.89,-0.24 c -269.26,-0.02 -538.52,-0.07 -807.76,-0.21 -43.41,-0.04 -45.55,-2.15 -45.84,-44.76 -0.27,-39.12 -0.26,-78.23 -0.25,-117.36 l 0.01,-23.49 c 0,-9.61 0,-27.54 2.41,-29.9 2.54,-2.51 21,-2.51 30.91,-2.51 l 554.9,-0.05 z m 416.42,-28.15 h -0.85 c -138.51,0.58 -277.06,0.72 -415.57,0.72 l -809.37,-0.28 -332.74,0.04 c -52.81,0 -60.76,7.83 -60.76,59.84 v 23.49 c -0.01,39.18 -0.03,78.37 0.25,117.56 0.39,57.81 14.77,71.93 73.25,72 269.26,0.14 538.51,0.17 807.77,0.2 l 645.9,0.24 71.58,-0.05 c 31.57,-0.03 49.8,-2.29 61.88,-14.43 13.15,-13.21 14.13,-34.68 14.03,-61.39 -0.04,-13.41 -0.22,-26.84 -0.4,-40.25 -0.44,-32.86 -0.9,-66.82 0.89,-99.85 1.15,-20.77 -2.39,-34.32 -11.46,-43.9 -11.71,-12.36 -29.88,-13.94 -44.4,-13.94" /><path
         id="path82"
         style="fill:#357cb8;fill-opacity:1;fill-rule:nonzero;stroke:none"
         d="m 2192.98,3050.17 c -9.37,-0.38 -17.8,-4.27 -23.81,-10.99 -5.62,-6.27 -8.29,-14.17 -7.54,-22.24 1.18,-12.61 5.88,-27.08 31.99,-27.08 v -13.73 l 0.63,13.74 c 6.98,0.04 16.52,1.41 22.49,7.61 4.51,4.68 6.66,11.71 6.39,20.88 -0.54,18.6 -10.68,29.29 -30.15,31.81 z m 0.64,-87.75 c -34.6,0 -56.22,18.94 -59.3,51.96 -1.48,15.77 3.64,31.08 14.41,43.1 11.18,12.5 27.46,19.85 44.65,20.15 l 0.91,0.01 0.89,-0.1 c 33.73,-3.87 54.43,-25.69 55.37,-58.38 0.49,-16.57 -4.36,-30.65 -14.05,-40.7 -9.96,-10.35 -24.49,-15.89 -42.02,-16.04 h -0.86" /><path
         id="path84"
         style="fill:#357cb8;fill-opacity:1;fill-rule:nonzero;stroke:none"
         d="m 2424.47,3925.67 -0.48,166.85 158.04,0.59 0.32,-167.44 z m 184.94,194.99 -212.93,-0.81 0.64,-221.61 h 212.72 l -0.43,222.42" /><path
         id="path86"
         style="fill:#357cb8;fill-opacity:1;fill-rule:nonzero;stroke:none"
         d="m 2252.21,3653.36 c -0.64,3.03 -1.15,6.01 -1.15,8.63 0.08,177.02 0.43,354.02 0.86,531 0.03,10.04 0.78,20.17 1.68,31.4 3.06,37.69 12.95,46.98 50.4,47.32 52.54,0.47 244.62,0.52 398.96,0.56 105.77,0.03 198.14,0.06 227.69,0.2 l 11.47,0.03 c 85.27,0 85.27,0 85.43,-95.52 0.21,-114.02 0.14,-228.04 0.05,-342.08 l -0.08,-182.45 h -38.06 v 577.93 h -699.5 v -577.02 z m 65.18,549.59 h 644.63 v -577.93 h 92.94 l 0.08,209.87 c 0.08,114.05 0.16,228.1 -0.06,342.12 -0.16,105.92 -7.85,122.92 -112.86,122.92 l -11.61,-0.03 c -29.54,-0.14 -121.86,-0.17 -227.55,-0.19 -154.39,-0.04 -346.56,-0.1 -399.2,-0.57 -51.57,-0.47 -73.3,-20.8 -77.48,-72.55 -0.96,-11.81 -1.77,-22.49 -1.8,-33.52 -0.42,-177 -0.77,-354.03 -0.85,-531.04 0,-6.95 1.47,-13.3 2.76,-18.89 0.48,-2.03 0.93,-4.01 1.28,-5.88 l 1.5,-8.55 c 29.45,-0.05 58.86,0.21 88.22,1.11 v 573.13" /><path
         id="path88"
         style="fill:#357cb8;fill-opacity:1;fill-rule:nonzero;stroke:none"
         d="m 2426.48,3822.77 h 154.99 v -165.46 h -154.99 z m 160.64,-192.9 h 21.78 v 220.34 h -209.85 v -217.1 c 60.6,2.54 125.75,4.1 188.07,-3.24" /><path
         id="path90"
         style="fill:#357cb8;fill-opacity:1;fill-rule:nonzero;stroke:none"
         d="m 4052.03,3836.09 c -265.24,208.26 -539.66,413.5 -805.07,611.99 -194.44,145.41 -395.5,295.78 -591.15,446.01 l -8.33,6.39 -1417.13,-1080.29 16.64,-10.56 c 6.7,-4.25 12.83,-7.81 18.46,-11.09 10.31,-6 18.46,-10.74 24.61,-16.58 25.24,-23.93 48.79,-24.33 76.84,-0.04 15.78,13.67 33.17,25.58 53.26,39.36 2.68,1.83 5.39,3.67 8.12,5.56 l -0.29,-769.25 c 0,0 12.85,16.09 27.43,27.56 l 0.29,794.66 -21.7,-15.49 c -10.26,-7.34 -20.04,-14.03 -29.36,-20.41 -19.93,-13.66 -38.74,-26.56 -55.72,-41.25 -16.8,-14.55 -25.05,-14.98 -39.98,-0.8 -8.46,8.04 -18.32,13.76 -29.71,20.39 l -0.53,0.31 1368.71,1043.38 c 193.16,-148.21 391.36,-296.42 583.12,-439.82 262.38,-196.24 533.58,-399.06 795.89,-604.81 -7.88,-1.31 -15.76,-2.93 -23.44,-4.52 -24.33,-5 -47.91,-9.11 -65.53,-5.01 -18.47,4.3 -36.03,18.1 -56.4,34.1 -10.23,8.04 -20.81,16.33 -32.63,24.36 l -21.41,14.54 v -799.97 c 17.67,-5.98 27.43,-17.69 27.43,-17.69 v 764.72 c 3.27,-2.52 6.5,-5.04 9.65,-7.54 22,-17.26 42.74,-33.56 67.11,-39.24 22.67,-5.3 51.2,-0.51 77.3,4.85 10.82,2.24 21.05,4.34 31.09,5.63 l 8.39,1.07 11.79,33.39 -7.75,6.09" /><path
         id="path92"
         style="fill:#357cb8;fill-opacity:1;fill-rule:nonzero;stroke:none"
         d="m 2696.74,3926.74 v 166.62 l 156.27,-0.18 0.22,-166.44 z m 183.68,193.83 -211.11,0.27 v -221.53 h 211.38 l -0.27,221.26" /><path
         id="path94"
         style="fill:#357cb8;fill-opacity:1;fill-rule:nonzero;stroke:none"
         d="m 2849.66,3655.63 h -151.6 v 167.7 h 151.6 z m 27.44,195.13 H 2670.63 V 3628.2 h 206.47 v 222.56" /><path
         id="path96"
         style="fill:#357cb8;fill-opacity:1;fill-rule:nonzero;stroke:none"
         d="m 2642.2,5159.87 c -2.15,-1.34 -3.92,-2.48 -5.57,-3.76 l -913.52,-712.49 c -154.06,-120.18 -308.1,-240.35 -462.41,-360.21 -18,-13.99 -36.79,-27.37 -54.96,-40.3 -17.53,-12.48 -35.65,-25.39 -52.83,-38.68 -21.29,-16.49 -26.37,-39.27 -15.52,-69.65 8.02,-22.38 25.8,-34.82 46.81,-32.11 19.84,2.53 40.3,15.3 53.96,25.56 227.37,170.89 464.06,349.64 723.61,546.48 228.77,173.54 455.24,346.38 646.6,492.58 11.83,9.04 22.33,15.06 35.13,15.06 10.06,0 20.25,-3.98 31.13,-12.14 193.9,-145.52 388.08,-290.65 582.25,-435.78 142.45,-106.46 284.89,-212.92 427.22,-319.54 70.75,-52.97 142.26,-107.35 211.42,-159.94 58.12,-44.2 116.23,-88.39 174.58,-132.29 32.66,-24.6 56.42,-26.14 78.4,-2.31 23.43,25.43 22.62,62.18 -1.99,89.34 -10.76,11.92 -23.62,22.34 -35.95,31.84 -184.93,142.7 -370.03,285.21 -555.21,427.58 -3.19,2.44 -7,4.55 -11.34,6.81 l -18.29,-32.71 -80.86,61.43 c -86.43,65.63 -168.07,127.61 -250.88,191.43 -9.07,6.96 -25.95,24.87 -24.81,42.67 1.25,19.84 -8.86,28.56 -28.34,43.49 -33.12,25.41 -66.15,50.93 -99.18,76.43 -54.66,42.22 -111.19,85.88 -167.13,128.29 -55.07,41.73 -111.59,83.53 -166.24,123.96 -22.04,16.32 -44.08,32.62 -66.08,48.96 z M 1178.54,3874.88 c -30.12,0 -55.78,19.4 -66.98,50.65 -14.72,41.22 -6,76.93 24.56,100.6 17.61,13.62 35.96,26.68 53.71,39.32 17.95,12.77 36.49,25.99 54.04,39.62 154.29,119.85 308.33,240.02 462.37,360.18 l 913.52,712.49 c 2.69,2.1 5.59,3.95 9.41,6.35 l 14.16,9.12 7.67,-5.7 c 24.5,-18.22 49.04,-36.37 73.6,-54.54 54.71,-40.48 111.29,-82.33 166.49,-124.17 56.04,-42.48 112.62,-86.17 167.33,-128.42 33.01,-25.5 66.02,-50.99 99.11,-76.38 19.33,-14.83 41.24,-31.62 39.01,-67 -0.07,-3.21 5.98,-12.91 14.17,-19.2 82.76,-63.75 164.35,-125.72 250.74,-191.31 l 55.73,-42.34 16.13,28.89 12,-6.77 c 2.89,-1.62 5.73,-3.09 8.47,-4.51 6.14,-3.17 12.49,-6.46 18.29,-10.91 185.21,-142.37 370.3,-284.9 555.24,-427.61 13.34,-10.26 27.35,-21.63 39.56,-35.15 34.49,-38.09 35.23,-90.04 1.8,-126.33 -31.25,-33.9 -70.16,-34.79 -115.09,-1.02 -58.37,43.93 -116.51,88.15 -174.67,132.38 -69.11,52.56 -140.59,106.9 -211.26,159.82 -142.32,106.6 -284.75,213.06 -427.19,319.51 -194.19,145.15 -388.39,290.29 -582.3,435.82 -5.96,4.48 -10.75,6.64 -14.66,6.64 -4.42,0 -9.6,-2.63 -18.48,-9.42 -191.38,-146.21 -417.88,-319.07 -646.67,-492.63 -259.59,-196.87 -496.31,-375.65 -723.71,-546.55 -16.31,-12.26 -41.17,-27.56 -66.97,-30.86 -3.09,-0.39 -6.14,-0.57 -9.13,-0.57" /><path
         id="path98"
         style="fill:#357cb8;fill-opacity:1;fill-rule:nonzero;stroke:none"
         d="m 3207.66,4865.46 44.05,-5.64 v -12.08 c 0,-5.54 0.12,-11.06 0.25,-16.56 0.28,-12.41 0.57,-25.25 -0.58,-38.11 -2.55,-28.94 7.16,-47.54 33.53,-64.17 28.01,-17.66 54.44,-38.22 80.01,-58.11 11.26,-8.77 22.54,-17.56 33.96,-26.09 24.35,-18.22 48.74,-36.41 77.02,-57.49 l 1.86,-1.39 v 275.84 l 43.06,5.84 v 88.46 h -313.16 z m 297.54,-334.32 -45.7,34.08 c -28.29,21.09 -52.68,39.28 -77.05,57.51 -11.56,8.65 -22.97,17.53 -34.39,26.4 -25.03,19.49 -50.92,39.62 -77.79,56.57 -34.99,22.07 -49.66,50.6 -46.21,89.8 1.02,11.34 0.75,22.85 0.48,35.06 -0.05,1.7 -0.09,3.39 -0.12,5.09 l -44.19,5.68 v 142.06 h 368.02 v -139.85 l -43.05,-5.84 v -306.56" /><path
         id="path100"
         style="fill:#357cb8;fill-opacity:1;fill-rule:nonzero;stroke:none"
         d="m 1326.94,5244.57 c -18.62,0 -35.6,-2.92 -49.07,-8.45 -101.45,-41.64 -195.41,-104.3 -279.292,-186.26 -11.984,-11.72 -25.547,-29.41 -22.09,-47.07 2.875,-14.72 17.793,-28.25 41.992,-38.14 l 1.78,-0.72 c 39,-15.91 79.33,-32.36 118.01,-51.15 13.24,-6.45 27.97,-24.44 28.79,-40.94 4.52,-90.66 8.61,-179.38 9.04,-268.2 0.41,-90.68 -0.71,-182.83 -1.79,-271.92 -0.49,-40.66 -0.98,-81.33 -1.34,-121.99 -0.13,-14.91 -0.1,-29.84 -0.06,-45.72 v -0.17 c 19.95,14.45 27.68,33.02 27.38,62.29 -0.8,78.23 -0.16,157.71 0.45,234.58 0.49,61.68 1,125.45 0.76,188.14 -0.07,19.26 3.7,32.04 11.85,40.24 10.8,10.82 26.07,12.48 51.86,3.86 l 9.37,-3.12 v -505.06 l 32.08,24.22 c 82.13,61.93 167.06,125.98 249.68,190.06 3.22,2.72 6.55,15.18 5.16,19.31 -15.78,46.6 -33.02,93.7 -49.7,139.23 -9.08,24.82 -18.17,49.63 -27.07,74.49 -7.42,20.68 -14.21,41.83 -20.78,62.28 -3.02,9.41 -6.04,18.83 -9.13,28.22 l -3.36,10.22 28.54,17.93 7.49,-10.91 c 52.75,-77.35 117.77,-136.81 197.92,-180.83 l -3.53,6.76 c -38.52,74.48 -79.78,162.29 -81.8,262.04 -1.37,67.59 19.06,90.42 84.08,93.95 35.71,1.92 72.06,-1.14 107.07,-4.12 11.05,-0.93 22.09,-1.87 33.1,-2.66 24.58,-1.75 37.54,7.49 42.67,31.61 6.11,28.66 11.58,58.06 16.88,86.5 l 2.32,12.41 c 9.68,52.08 5.09,59.5 -44.66,72.17 -16.03,4.08 -32.3,6.6 -49.52,9.26 -18.6,2.88 -37.84,5.86 -56.57,10.98 -47.54,12.96 -95.68,26.75 -142.24,40.09 -72.71,20.83 -147.9,42.36 -222.34,61.21 -13.91,3.53 -29.11,5.38 -43.93,5.38 z m -181.43,-1125.94 -0.04,45.32 c -0.03,15.98 -0.06,31 0.06,46.01 0.36,40.71 0.85,81.4 1.35,122.09 1.08,88.99 2.2,181.01 1.79,271.46 -0.42,88.25 -4.51,176.64 -9.01,266.96 -0.23,4.51 -7.44,14.75 -13.39,17.63 -37.86,18.4 -77.77,34.68 -116.37,50.43 l -1.79,0.73 c -42.344,17.29 -55.212,41.21 -58.54,58.25 -3.207,16.38 -0.632,42.17 29.832,71.95 86.408,84.45 183.318,149.06 288.038,192.04 29.66,12.18 73.21,13.66 110.17,4.29 74.85,-18.96 150.23,-40.55 223.15,-61.43 46.48,-13.32 94.54,-27.09 141.93,-40.01 17.22,-4.72 34.85,-7.44 53.52,-10.33 17.11,-2.64 34.8,-5.38 52.1,-9.78 63.84,-16.26 77.17,-37.6 64.85,-103.79 l -2.31,-12.4 c -5.33,-28.61 -10.84,-58.19 -17.02,-87.19 -7.96,-37.44 -32.33,-56.02 -71.46,-53.26 -11.13,0.79 -22.29,1.74 -33.47,2.7 -34.1,2.89 -69.18,5.88 -103.26,4.05 -49.97,-2.72 -59.2,-13.21 -58.12,-66.01 1.88,-93.86 41.63,-178.25 78.73,-249.98 l 41.96,-80.32 -36.61,16.99 c -85.81,39.83 -156.41,94.38 -214.51,165.95 4.32,-13.26 8.78,-26.58 13.46,-39.63 8.89,-24.81 17.95,-49.57 27.01,-74.31 16.74,-45.7 34.04,-92.95 49.94,-139.9 5.21,-15.49 -1.9,-40.12 -14.35,-49.76 -82.77,-64.2 -167.77,-128.31 -249.98,-190.3 l -43.35,-32.7 c -3.34,-2.54 -6.87,-3.77 -9.97,-4.85 -1.14,-0.39 -2.39,-0.83 -3.77,-1.39 l -18.93,-7.79 v 529.29 c -7.39,1.74 -12.74,1.73 -14.36,0.08 -0.92,-0.93 -3.92,-5.15 -3.86,-20.76 0.24,-62.84 -0.27,-126.7 -0.76,-188.47 -0.61,-76.75 -1.25,-156.1 -0.44,-234.07 0.48,-48.32 -18.27,-77.81 -62.69,-98.62 l -19.53,-9.17" /><path
         id="path102"
         style="fill:#357cb8;fill-opacity:1;fill-rule:evenodd;stroke:none"
         d="m 1014.13,5011.14 c 20.95,-19.88 35.84,-21.88 61.53,-2.91 66.55,49.18 137.44,92.52 206.77,137.91 36.87,24.14 75.12,24.2 117.29,12.38 84.52,-23.68 170.09,-43.61 255.5,-63.84 8.63,-2.03 19.26,4.55 28.96,7.13 -6.62,7.53 -11.89,19.5 -20.01,21.89 -93.39,27.7 -187,54.7 -281.08,80 -22.72,6.13 -50.16,13.4 -70.62,6.27 -112.93,-39.26 -209.27,-106.16 -294.75,-189.11 -1.53,-1.48 -1.69,-4.39 -3.59,-9.72" /><path
         id="path104"
         style="fill:#357cb8;fill-opacity:1;fill-rule:evenodd;stroke:none"
         d="m 1496.27,4883.05 c -18.99,-63.81 35.55,-171.51 89.8,-204.17 -6.96,41.1 -18.37,85.31 -21.24,130.1 -5.87,91.73 17.6,121.95 105.93,148.86 4.1,1.25 8.03,2.91 17.33,6.3 -97.81,11.86 -236.26,-24.44 -260.75,-60.66 45.09,16.11 96.13,34.36 147.16,52.6 2.38,-3.08 4.77,-6.17 7.15,-9.25 -64,-30.63 -70.96,-83 -61.22,-143.1 -8.06,26.45 -16.12,52.9 -24.16,79.32" /><path
         id="path106"
         style="fill:#357cb8;fill-opacity:1;fill-rule:evenodd;stroke:none"
         d="m 1194.99,4808.91 c 0,-22.44 -1.82,-36.95 0.64,-50.68 1.56,-8.69 9.35,-23.1 14.63,-23.22 69.84,-1.56 139.76,-1.04 209.66,-1.04 2.74,3.98 5.47,7.97 8.2,11.93 -9.59,16.96 -15.41,41.63 -29.85,48.7 -14.6,7.17 -150.08,1.11 -203.28,14.31" /><path
         id="path108"
         style="fill:#357cb8;fill-opacity:1;fill-rule:evenodd;stroke:none"
         d="m 1819.04,4956.33 c 5.5,-1.13 10.98,-2.28 16.48,-3.43 7.28,40.53 20.38,81.37 18.14,121.34 -0.65,11.06 -46.97,19.57 -72.34,29.17 -2.22,0.83 -4.85,1.91 -6.99,1.47 -6.21,-1.29 -12.27,-3.31 -18.41,-5.01 2.65,-5.86 3.97,-13.01 8.18,-17.35 14.01,-14.45 29.06,-27.92 43.85,-41.86 4.72,3.84 10.63,8.69 18.4,15.03 -2.65,-36.09 -4.98,-67.73 -7.31,-99.36" /><path
         id="path110"
         style="fill:#357cb8;fill-opacity:1;fill-rule:evenodd;stroke:none"
         d="m 1267.83,4860.32 c -32.28,30.14 -64.59,60.29 -96.9,90.41 -3,-3.34 -6,-6.7 -9.03,-10.07 47.05,-14.63 33.17,-97.41 105.93,-80.34" /><path
         id="path112"
         style="fill:#357cb8;fill-opacity:1;fill-rule:nonzero;stroke:none"
         d="m 5007.65,2485.16 v -20.71 l 535.42,1.91 -13.84,18.8 z m -27.44,-48.25 v 75.68 h 562.9 l 54.04,-73.47 -616.94,-2.21" /><path
         id="path114"
         style="fill:#357cb8;fill-opacity:1;fill-rule:nonzero;stroke:none"
         d="m 4438.34,2568.74 481.16,-1.87 v 20.65 h -472.17 z m 508.6,-29.41 -552.09,2.15 35.22,73.48 h 516.87 v -75.63" /><path
         id="path116"
         style="fill:#357cb8;fill-opacity:1;fill-rule:nonzero;stroke:none"
         d="m 5007.65,2587.52 v -20.65 l 481.12,1.87 -9.01,18.78 z m -27.44,-48.19 v 75.63 h 516.83 l 35.24,-73.48 -552.07,-2.15" /><path
         id="path118"
         style="fill:#357cb8;fill-opacity:1;fill-rule:nonzero;stroke:none"
         d="m 4402.41,2466.38 517.09,-1.85 v 20.63 h -508.07 z m 544.53,-29.39 -588.06,2.11 35.3,73.49 h 552.76 v -75.6" /><path
         id="path120"
         style="fill:#357cb8;fill-opacity:1;fill-rule:nonzero;stroke:none"
         d="m 4963.54,2057.86 0.98,-0.07 c 6.41,-0.44 14.36,-0.66 23.64,-0.66 160.93,0 709.02,61.78 873.18,80.7 45.33,5.24 87.35,27.79 118.29,63.48 31.2,36.07 48.83,313.69 52.45,572.84 0.1,6.75 -2.36,13.19 -6.74,17.64 -88.16,90.09 -209.84,177.89 -258.06,211.46 l -7.96,5.54 16.13,58.76 14.21,-5.61 c 57.02,-22.53 106.8,-41.19 138.29,-41.19 12.42,0 21.45,2.72 28.47,8.56 3.79,4.76 9.09,34.89 6.67,96.92 -0.58,15.33 -11.61,27.52 -25.68,28.39 l -124.21,7.73 c -24.33,1.61 -45.97,-14.77 -53.05,-39.47 -3.44,-11.98 -7.12,-26.28 -11.26,-43.7 l -10.18,-42.75 -15.95,40.94 c -35.72,91.69 -91.22,228.42 -121.12,301.76 -23.37,57.32 -72.04,97.78 -130.18,108.22 -8.97,1.62 -17.81,3.16 -26.55,4.68 -317.23,55.27 -645.45,55.27 -962.67,0 -8.8,-1.52 -17.6,-3.06 -26.52,-4.68 -58.18,-10.44 -106.86,-50.9 -130.23,-108.22 -37.18,-91.25 -88.36,-217.67 -121.1,-301.75 l -15.94,-40.98 -10.18,42.78 c -4.05,17.05 -7.73,31.35 -11.27,43.69 -7.08,24.72 -28.59,41.18 -53.04,39.48 l -124.21,-7.73 c -14.07,-0.87 -25.11,-13.07 -25.71,-28.38 -2.42,-62.04 2.88,-92.17 7.05,-97.27 6.63,-5.5 15.67,-8.22 28.08,-8.22 31.5,0 81.29,18.66 138.33,41.19 l 14.21,5.61 16.13,-58.76 -7.96,-5.54 c -46.83,-32.59 -171.05,-149.29 -257.71,-237.84 -2.51,-2.57 -4.9,-4.29 -6.89,-5.49 3.54,-252.47 21.04,-522.54 52.25,-558.61 l 1.47,-1.55 c 33.16,-35.06 77.08,-57.37 123.63,-62.73 162.8,-18.74 706.44,-79.89 866.45,-79.89 9.24,0 17.12,0.21 23.51,0.65 z m 24.63,-28.17 c -0.01,0 0,0 -0.01,0 -9.6,0 -17.85,0.21 -24.62,0.67 -120.78,-7.97 -721.25,59.52 -894.05,79.43 -52.95,6.09 -102.84,31.38 -140.5,71.19 l -1.88,2.01 c -47.13,54.44 -57.15,422.8 -59.28,578.67 -0.16,10.61 3.42,16.92 11.97,21.07 1.26,0.6 1.78,0.86 2.76,1.86 83.09,84.9 200.88,195.77 253.75,235.44 l -2.96,10.79 c -55.33,-21.62 -100.62,-37.51 -134.18,-37.51 -18.94,0 -33.97,4.89 -46.02,14.92 -5.6,4.69 -20.52,17.12 -16.51,119.08 1.12,29.43 23.22,52.95 51.41,54.69 l 124.19,7.73 c 37.13,2.36 70.66,-22.72 81.13,-59.31 0.32,-1.16 0.65,-2.33 0.99,-3.51 32.01,81.05 73.97,184.63 105.73,262.57 26.93,66.08 83.31,112.75 150.76,124.87 8.96,1.62 17.84,3.18 26.68,4.71 320.3,55.8 651.76,55.8 972.08,0 8.82,-1.53 17.7,-3.09 26.71,-4.72 67.43,-12.1 123.79,-58.77 150.71,-124.86 25.87,-63.45 70.89,-174.31 105.75,-262.54 0.33,1.18 0.66,2.35 1,3.49 10.45,36.58 44.07,61.55 81.14,59.3 l 124.19,-7.73 c 28.18,-1.74 50.27,-25.26 51.38,-54.71 4.01,-101.94 -10.91,-114.37 -16.52,-119.06 -12.06,-10.03 -27.09,-14.92 -46.02,-14.92 -33.56,0 -78.84,15.89 -134.14,37.51 l -2.91,-10.61 c 53.27,-37.44 168.78,-122.11 254.04,-209.23 9.44,-9.61 14.75,-23.18 14.57,-37.2 -2.23,-159.56 -12.45,-536.46 -59.15,-590.41 -35.44,-40.93 -83.71,-66.77 -135.9,-72.78 -164.5,-18.98 -713.86,-80.9 -876.29,-80.9" /><path
         id="path122"
         style="fill:#357cb8;fill-opacity:1;fill-rule:nonzero;stroke:none"
         d="m 5926.89,3034.68 c -3.79,0 -6.84,5.2 -6.84,11.6 0,6.44 3.05,11.63 6.84,11.63 3.78,0 6.87,-5.19 6.87,-11.63 0,-6.4 -3.09,-11.6 -6.87,-11.6" /><path
         id="path124"
         style="fill:#357cb8;fill-opacity:1;fill-rule:nonzero;stroke:none"
         d="m 5924.92,3135.67 c 10.53,0 19.02,-14.45 19.02,-32.24 0,-17.8 -8.49,-32.24 -19.02,-32.24 -10.51,0 -19.05,14.44 -19.05,32.24 0,17.79 8.54,32.24 19.05,32.24" /><path
         id="path126"
         style="fill:#357cb8;fill-opacity:1;fill-rule:nonzero;stroke:none"
         d="m 4000.22,3034.68 c -3.8,0 -6.86,5.2 -6.86,11.6 0,6.44 3.06,11.63 6.86,11.63 3.8,0 6.86,-5.19 6.86,-11.63 0,-6.4 -3.06,-11.6 -6.86,-11.6" /><path
         id="path128"
         style="fill:#357cb8;fill-opacity:1;fill-rule:nonzero;stroke:none"
         d="m 4002.21,3071.19 c -10.53,0 -19.05,14.44 -19.05,32.24 0,17.79 8.52,32.24 19.05,32.24 10.53,0 19.05,-14.45 19.05,-32.24 0,-17.8 -8.52,-32.24 -19.05,-32.24" /><path
         id="path130"
         style="fill:#357cb8;fill-opacity:1;fill-rule:nonzero;stroke:none"
         d="m 5938.32,2780.15 -97.84,-6.19 -112.77,183.35 z" /><path
         id="path132"
         style="fill:#357cb8;fill-opacity:1;fill-rule:nonzero;stroke:none"
         d="m 4965.33,3479.38 h -1.77 c -144.89,-0.11 -347.51,-26.61 -423.79,-36.59 -17.74,-2.32 -25.03,-3.28 -27.8,-3.45 -81.18,-5.28 -120.85,-36.67 -146.38,-115.84 l -85.31,-264.12 c -1.45,-4.54 -0.7,-9.5 2.03,-13.25 1.36,-1.86 4.38,-5 9.34,-5 h 1343.8 c 4.99,0 8.01,3.14 9.36,5 2.74,3.76 3.5,8.72 2.04,13.26 l -85.26,264.11 c -25.55,79.17 -65.25,110.56 -146.46,115.84 -3.73,0.24 -10.57,1.35 -25.66,3.82 -60.37,9.91 -220.7,36.22 -424.14,36.22 z m 670.12,-465.68 h -1343.8 c -12.5,0 -23.99,5.94 -31.52,16.29 -7.87,10.82 -10.1,24.96 -5.93,37.81 l 85.27,264.13 c 28.95,89.73 78.41,128.79 170.74,134.79 2.32,0.14 11.52,1.37 26.01,3.26 76.75,10.05 280.65,36.72 427.32,36.83 h 1.79 c 205.67,0 367.62,-26.57 428.59,-36.57 10.95,-1.8 20.43,-3.35 22.98,-3.52 92.36,-6 141.84,-45.06 170.8,-134.79 l 85.26,-264.13 c 4.15,-12.88 1.91,-27.01 -5.98,-37.82 -7.53,-10.34 -19.01,-16.28 -31.53,-16.28" /><path
         id="path134"
         style="fill:#357cb8;fill-opacity:1;fill-rule:nonzero;stroke:none"
         d="m 4417.25,2636.25 c -7.16,0 -13.69,-4.64 -16.62,-11.81 l -77.31,-189.18 c -2.73,-6.71 -1.98,-14.25 2,-20.19 3.48,-5.16 8.81,-8.1 14.63,-8.1 H 5587.2 c 5.81,0 11.14,2.94 14.61,8.12 3.97,5.92 4.7,13.46 1.96,20.14 l -77.28,189.2 c -2.94,7.18 -9.45,11.82 -16.61,11.82 z M 5587.2,2379.52 H 4339.95 c -14.89,0 -28.87,7.57 -37.38,20.25 -9.09,13.51 -10.84,30.65 -4.65,45.84 l 77.31,189.2 c 7.16,17.54 23.65,28.88 42.02,28.88 h 1092.63 c 18.36,0 34.86,-11.34 42,-28.9 l 77.27,-189.16 c 6.22,-15.14 4.52,-32.28 -4.55,-45.81 -8.52,-12.72 -22.5,-20.3 -37.4,-20.3" /><path
         id="path136"
         style="fill:#357cb8;fill-opacity:1;fill-rule:nonzero;stroke:none"
         d="m 4199.44,2957.31 -112.76,-183.35 -97.89,6.19 z" /><path
         id="path138"
         style="fill:#357cb8;fill-opacity:1;fill-rule:nonzero;stroke:none"
         d="m 3967.29,2677.79 c -9.08,-52.46 -1.56,-89.78 6.74,-112.38 7.11,-19.29 24.7,-32.8 44.79,-34.4 l 208.72,-16.55 c 6.53,0 12.48,3.99 15.52,10.4 l 43.58,92.23 c 2.88,6.1 2.64,13.22 -0.64,19.06 -2.89,5.17 -7.7,8.47 -13.18,9.05 z m 260.25,-190.78 c -1.12,0 -2.27,0.05 -3.4,0.14 l -207.5,16.5 c -30.74,2.47 -57.57,22.98 -68.35,52.29 -10.18,27.69 -19.39,74.41 -5.51,139.67 l 2.59,12.1 330.35,-35.24 c 14.42,-1.52 26.89,-9.86 34.2,-22.88 7.64,-13.59 8.21,-30.12 1.54,-44.23 l -43.6,-92.23 c -7.62,-16.11 -23.08,-26.12 -40.32,-26.12" /><path
         id="path140"
         style="fill:#357cb8;fill-opacity:1;fill-rule:nonzero;stroke:none"
         d="m 5959.85,2677.79 -305.49,-32.58 c -5.52,-0.59 -10.31,-3.89 -13.22,-9.04 -3.28,-5.85 -3.52,-12.97 -0.62,-19.07 l 43.55,-92.25 c 3.04,-6.42 8.97,-10.39 15.52,-10.39 l 1.25,0.04 207.45,16.51 c 20.1,1.6 37.7,15.12 44.83,34.42 8.29,22.53 15.78,59.83 6.73,112.36 z m -260.26,-190.78 c -17.29,0 -32.73,10.02 -40.32,26.14 l -43.57,92.22 c -6.67,14.11 -6.1,30.65 1.53,44.22 7.31,13.02 19.77,21.37 34.22,22.89 l 330.34,35.23 2.58,-12.1 c 13.84,-65.35 4.64,-112.02 -5.5,-139.66 -10.83,-29.32 -37.68,-49.83 -68.39,-52.3 l -207.47,-16.5 c -1.16,-0.09 -2.3,-0.14 -3.42,-0.14" /><path
         id="path142"
         style="fill:#357cb8;fill-opacity:1;fill-rule:nonzero;stroke:none"
         d="m 5864.23,2085.57 4.42,-29.08 c 5.33,-34.93 4.46,-63.85 -3.52,-96.23 40.05,27.18 45.42,96.38 44.95,136.17 -3.82,-1.38 -7.37,-2.53 -10.92,-3.63 l -2.61,-0.76 c -3.9,-1.14 -8.39,-2.21 -12.89,-3.17 -1.37,-0.34 -2.18,-0.55 -3.03,-0.7 -5.33,-1.06 -10.7,-1.95 -16.15,-2.58 z m -1847.16,12.05 c -0.61,-40.6 4.72,-111.7 46.38,-138.33 -9.09,40.15 -7.73,59.12 -5.69,87.55 l 2.71,39.21 c -2.92,0.47 -5.83,1 -8.73,1.6 -1.78,0.35 -3.62,0.81 -5.48,1.28 l -2.46,0.6 c -3.95,0.93 -6.6,1.56 -9.18,2.3 -2.89,0.82 -5.86,1.82 -8.81,2.84 l -2.07,0.67 c -1.92,0.62 -3.83,1.24 -5.71,1.94 -0.32,0.11 -0.65,0.22 -0.96,0.34 z m 160.99,-25.11 10.36,-21.76 c 5.26,-11.07 10.26,-25.3 16.63,-43.3 6.42,-18.21 14.27,-40.43 24.9,-66.48 13.72,0.74 26.54,6.97 36.18,17.62 10.89,12 16.57,28.45 15.56,45.14 l -1.65,27.42 15.81,-1.34 c 258.41,-22.08 645.24,-50.28 667.69,-51.91 22.48,1.63 409.36,29.83 667.74,51.91 l 15.81,1.34 -1.65,-27.42 c -0.99,-16.7 4.68,-33.16 15.57,-45.16 9.54,-10.5 22.18,-16.72 35.72,-17.58 10.11,27.73 19.52,50.92 26.58,68.31 7.21,17.76 12.91,31.8 14.4,38.53 l 5.33,23.99 -27.95,-3.11 c -24.73,-2.72 -50.73,-5.57 -77.69,-8.5 -253.66,-27.46 -587.4,-60.63 -673.86,-54.84 -86.4,-5.88 -420.19,27.37 -673.87,54.84 -39.57,4.28 -77.2,8.43 -111.61,12.3 z m -47.69,-128.84 c 12.18,-1.28 24.89,-2.17 38.41,-2.7 -11.56,41.49 -9.83,62.55 -7.56,90.39 0.38,4.57 0.76,9.33 1.11,14.42 l 1.93,28.26 -91.02,10.35 11.24,-24.18 c 5.34,-11.49 13.91,-33.72 25.76,-64.52 6.03,-15.68 12.78,-33.26 20.13,-52.02 z m 1625.65,129.61 8.09,-24.04 c 7.14,-21.25 1.3,-71.21 -6.81,-108.32 14.16,0.55 27.41,1.47 40.07,2.82 15.54,33.03 24.9,59.51 33.93,85.18 3.64,10.31 7.18,20.33 10.98,30.37 l 9.39,24.83 -58.19,-6.63 -3.59,13.4 1.57,-13.62 z m -1549.64,-160.53 -19.17,0.27 c -24.93,0.38 -47.25,1.8 -68.24,4.33 l -8.11,0.99 -3.01,7.61 c -7.4,18.85 -14.28,36.62 -20.45,52.68 1.98,-10.55 4.9,-22.87 9.07,-38.15 l 4.74,-17.32 -21.42,0.43 c -91.17,18.96 -92.84,142.81 -89.32,195.25 l 1.36,20.09 18.2,-8.63 c 1.98,-0.93 3.99,-1.76 6.01,-2.6 l 2.81,-1.18 c 3.6,-1.52 6.11,-2.56 8.63,-3.5 1.54,-0.57 3.11,-1.06 4.68,-1.56 l 1.4,-0.46 c 3.58,-1.22 6.08,-2.08 8.62,-2.79 2.22,-0.66 4.39,-1.16 6.57,-1.66 l 4.17,-1 c 1.41,-0.36 2.81,-0.71 4.25,-1.01 5.14,-1.05 10.25,-1.9 15.4,-2.46 l 98.27,-11.15 c 37.1,-4.18 78.27,-8.74 121.78,-13.45 233.22,-25.25 534.67,-55.35 646.37,-55.35 9.26,0 17.19,0.22 23.6,0.67 l 0.95,0.07 0.98,-0.07 c 6.4,-0.45 14.32,-0.67 23.58,-0.67 111.73,0 413.16,30.1 646.36,55.35 26.93,2.92 52.91,5.77 77.62,8.51 l 100.84,11.32 c 2.03,0.25 3.19,0.37 4.16,0.42 l 44.23,5.11 c 4.73,0.55 9.39,1.32 14.03,2.25 l 2.42,0.58 c 4.07,0.87 7.89,1.78 11.64,2.87 1.18,0.34 1.84,0.54 2.53,0.71 3.35,1.06 7.53,2.46 11.67,3.99 4.96,1.91 9.32,3.75 13.61,5.77 l 18.22,8.6 1.31,-20.13 c 3.35,-52.07 1.32,-175.1 -89.46,-193.91 l -3.4,-0.41 h -19.2 l 6.22,18.14 c 3.85,11.23 6.74,21.59 8.87,31.32 -5.81,-14.59 -12.58,-30.34 -20.94,-47.63 l -3.26,-6.74 -7.44,-0.9 c -20.95,-2.53 -43.24,-3.95 -68.18,-4.33 l -18.24,-0.26 4.8,17.58 c 2.51,9.27 4.79,19.41 6.69,29.71 -4.42,-11.43 -9.13,-23.96 -14.02,-37.67 l -3.35,-9.38 -18.77,0.52 c -21.47,0.79 -41.5,10.23 -56.36,26.61 -14.89,16.41 -23.07,38.44 -22.8,61.01 -264.81,-22.45 -649.41,-50.4 -653.36,-50.68 l -1,-0.08 -0.98,0.08 c -3.94,0.28 -388.49,28.23 -653.33,50.68 0.29,-22.56 -7.88,-44.59 -22.77,-60.99 -14.88,-16.38 -34.89,-25.84 -56.37,-26.63 l -18.21,-0.51 -3.63,8.66 c -6.71,16 -12.37,30.61 -17.29,43.88 2.08,-9.85 5.13,-21.09 9.5,-34.58 l 5.92,-18.22" /><path
         id="path144"
         style="fill:#66ccd1;fill-opacity:1;fill-rule:nonzero;stroke:none"
         d="m 4943.08,3052.41 392.08,253.72 h -390.37 l 131.33,159.41 c -35.07,1.62 -72.1,2.57 -110.69,2.57 h -1.89 c -8.59,0 -17.46,-0.12 -26.46,-0.31 l -342,-242.14 h 354.81 l -163.7,-173.25 h 156.89" /><path
         id="path146"
         style="fill:#66ccd1;fill-opacity:1;fill-rule:nonzero;stroke:none"
         d="m 5242.43,4078.76 c 21.25,0 40.81,-7.46 56.56,-20.03 -10.98,4.19 -22.8,6.5 -35.12,6.5 -57.03,0 -103.3,-49.04 -103.3,-109.5 0,-11.98 1.84,-23.49 5.19,-34.27 -10.93,16.29 -17.35,36.16 -17.35,57.65 0,55.03 42.08,99.65 94.02,99.65 z m 23.1,-369.98 c 114.5,0 207.31,98.37 207.31,219.71 0,121.33 -92.81,219.7 -207.31,219.7 -114.48,0 -207.31,-98.37 -207.31,-219.7 0,-121.34 92.83,-219.71 207.31,-219.71" /><path
         id="path148"
         style="fill:#66ccd1;fill-opacity:1;fill-rule:nonzero;stroke:none"
         d="m 6165.66,2669.1 c 15.62,10.67 29.87,24.33 41.84,40.88 55.3,76.7 41.5,186.41 -30.89,245.05 -14.33,11.6 -29.86,20.31 -46.02,26.26 30.05,-1.12 60.11,-11.74 85.84,-32.58 65.85,-53.37 78.41,-153.21 28.04,-223.02 -20.57,-28.57 -48.51,-47.61 -78.81,-56.59 z m -452.22,1074.15 c -78.1,0 -141.43,-67.11 -141.43,-149.89 0,-16.39 2.49,-32.15 7.08,-46.9 -14.93,22.28 -23.74,49.51 -23.74,78.92 0,75.34 57.62,136.43 128.7,136.43 29.09,0 55.9,-10.24 77.44,-27.46 -15.02,5.76 -31.2,8.9 -48.05,8.9 z m -1269.19,69.28 c -111.98,0 -202.75,-96.18 -202.75,-214.86 0,-23.5 3.59,-46.1 10.18,-67.26 -21.44,31.95 -34.08,70.97 -34.08,113.16 0,108 82.64,195.57 184.56,195.57 41.66,0 80.11,-14.66 110.99,-39.34 -21.51,8.24 -44.71,12.73 -68.9,12.73 z m 1621.64,-727.39 c -8.92,0 -17.74,-0.48 -26.42,-1.41 7.1,25.14 10.99,51.73 10.99,79.32 0,109.17 -59.93,203.5 -146.79,248.12 28.97,44.44 45.98,98.3 45.98,156.4 0,152.2 -116.44,275.58 -260.03,275.58 -124.25,0 -228.07,-92.39 -253.84,-215.85 -35.74,19.6 -76.27,30.72 -119.27,30.72 -61.37,0 -117.66,-22.55 -162.15,-60.22 -47.87,118.81 -159.07,202.08 -288.65,202.08 -50.97,0 -99.07,-12.96 -141.61,-35.83 -51.92,107.75 -157.53,181.58 -279.54,181.58 -173.24,0 -313.71,-148.86 -313.71,-332.49 0,-83.18 28.86,-159.13 76.49,-217.44 -30.87,-22.41 -172.31,-146.18 -171.22,-189.01 l 72,4.49 c 2,0.14 3.98,0.2 5.97,0.2 29.08,0 55.71,-12.84 74.39,-34.26 28.99,72.87 62.32,155.18 88.52,219.62 29.87,73.36 92.18,125.14 166.72,138.56 8.99,1.61 17.89,3.19 26.73,4.72 160.91,28.08 325.2,42.3 488.36,42.3 163.09,0 327.4,-14.22 488.33,-42.31 8.85,-1.52 17.73,-3.1 26.69,-4.71 74.58,-13.42 136.89,-65.2 166.77,-138.56 26.22,-64.44 59.55,-146.75 88.54,-219.62 18.64,21.44 45.24,34.26 74.37,34.26 1.98,0 3.96,-0.06 5.97,-0.2 l 123.91,-7.73 c 39.24,-2.43 70.08,-35.68 71.69,-77.36 4.13,-105.44 -10.77,-126.96 -25.02,-138.85 -15.68,-13.11 -35.56,-19.78 -59.02,-19.78 -10.75,0 -22.32,1.4 -34.8,3.94 53.04,-41.04 114.98,-92.5 166.29,-145.01 13.93,-14.23 21.72,-34.24 21.44,-54.92 -1.65,-117.72 -5.76,-248.81 -14.75,-359.6 50.5,26.03 87.15,77.41 95.32,138.57 99.95,38.4 171.38,139.9 171.38,259.12 0,152.17 -116.41,275.58 -260.03,275.58" /><path
         id="path150"
         style="fill:#66ccd1;fill-opacity:1;fill-rule:nonzero;stroke:none"
         d="m 4547.71,4841.05 c 20.5,318.37 -213.94,456.57 -246.15,474.08 -6.19,3.34 -12.91,5.74 -19.74,7.36 l -0.19,0.04 c -10.16,3.33 -24,7.65 -42.11,9.02 -2.18,0.09 -4.5,0.2 -6.89,0.21 -3.75,-1.68 -7.37,-3.55 -10.76,-5.72 -3.81,-2.46 -7.38,-5.27 -10.48,-8.53 -3.6,-3.73 -6.65,-7.97 -8.98,-12.89 -0.56,-1.21 -1.07,-2.42 -1.52,-3.68 -10.69,-28.56 8.54,-60.96 25.66,-82.81 11.55,-14.82 24.38,-28.65 37.02,-42.5 10.47,-11.5 25.3,-22.72 33.28,-35.97 4.5,-7.42 6.4,-16.97 3.53,-24.99 l -0.08,-0.19 c -0.49,-1.39 -1.15,-2.73 -2.01,-4.05 -1.01,-1.67 -2.27,-3.11 -3.72,-4.4 -6.48,-5.95 -16.34,-8.15 -25.43,-8.83 -47.87,-3.63 -100.35,13.98 -145.89,26.96 -5.04,1.42 -10.08,2.9 -15.12,4.4 -44.49,12.97 -88.62,27.15 -133.78,37.52 -116.67,26.78 -232.78,15.53 -293.07,-101.36 -56.47,-109.56 85.04,-168.46 173.23,-150.26 33.27,6.88 65.08,19.47 97.46,29.96 9.08,2.9 18.2,5.72 27.41,8.12 16.05,4.29 32.6,7.27 49.29,8.94 24.7,2.56 49.73,2.29 74.13,-0.77 0.71,-0.09 1.32,-0.16 1.97,-0.28 h 0.18 c 35.58,-4.7 69.79,-15.42 99.49,-32.08 57.8,-32.6 98.6,-87.83 99.75,-166.12 1.31,-91.35 -50.85,-183.53 -138.89,-215.77 -52.77,-19.32 -104.19,-7.07 -158.35,-2.95 -64.97,4.94 -130.42,4.18 -195.2,-2.95 -39.19,-4.31 -76.37,-13.83 -113.93,-23.15 8.57,0.14 17.22,-0.34 25.64,-0.39 3.99,-0.04 7.93,-0.16 11.89,-0.38 20.41,1.1 41.34,-0.16 61.53,-1.3 46.35,-2.61 92.43,-9.08 138.35,-15.84 169.35,-24.94 363.46,-49.03 499.86,82.82 69.2,66.9 106.51,163.7 112.62,258.73" /><path
         id="path152"
         style="fill:#66ccd1;fill-opacity:1;fill-rule:nonzero;stroke:none"
         d="m 4861.07,4323.93 c -20.89,36.02 -63.17,54.28 -104.21,61.61 -41.01,7.32 -83.37,6.15 -124.04,15.3 -66.28,14.96 -118.28,61.9 -83.66,131.27 25.18,50.46 174.99,36.26 249.6,49.17 28.69,4.97 42.61,36.87 30.3,62.86 -10.74,22.69 -27.24,44.5 -50.71,54.95 -26.42,11.75 -57.01,12.22 -84.55,4.33 -30.6,-8.76 -55.54,-26.96 -78.79,-47.99 1.6,1.78 3.24,3.58 4.87,5.36 -86.75,-95.67 -189.35,-214.27 -324.37,-234.12 -47.9,-7.03 -97.47,-5.3 -145.61,-1.91 -43.48,3.06 -86.82,8.21 -130.41,9.55 -14.69,0.46 -29.33,0.96 -44.02,1.42 -1.26,0 -2.34,0 -2.89,0 -5.33,-0.2 -10.7,-0.39 -16,-0.69 -16.49,-0.95 -32.98,-2.36 -49.37,-4.59 -11.01,-1.48 -22,-3.32 -32.92,-5.5 l -0.6,-0.27 c -0.77,-0.39 -3.72,-1.84 -6.4,-3.24 -1.01,-0.8 -2.59,-1.92 -5.09,-3.55 57.55,3.94 112.25,4.66 172.96,-6.12 158.43,-28.07 309.29,-99.66 429.91,-206.29 71.41,-63.15 156.96,-178.06 265.81,-135.42 43.45,17.02 77.42,52.33 103.78,90.89 32.77,48.02 55.51,112.66 26.41,162.98" /><g
         id="g154"><g
           clip-path="url(#clipPath160)"
           id="g156"><path
             id="path170"
             style="fill:url(#linearGradient168);fill-opacity:1;fill-rule:nonzero;stroke:none"
             d="m 4366.52,5128.68 c 0,0 134.87,-205.88 35.42,-402.78 0,0 174.07,160.71 -35.42,402.78" /></g></g></g></g></svg>